<svg xmlns="http://www.w3.org/2000/svg" width="26" height="34" viewBox="0 0 26 34">
    <g fill="none" fill-rule="evenodd" opacity=".7">
        <g fill="#000">
            <g>
                <path fill-rule="nonzero" d="M25.006 15.21l-1.646-2.253c-.103-.145-.11-.345-.007-.49l1.612-2.272c.145-.207.076-.496-.145-.613l-2.458-1.316c-.159-.082-.248-.261-.214-.44l.461-2.749c.042-.248-.144-.482-.399-.489l-2.783-.117c-.179-.007-.337-.13-.385-.303l-.772-2.686c-.069-.241-.337-.372-.572-.269l-2.562 1.102c-.165.07-.358.028-.482-.103L12.794.139c-.172-.186-.461-.186-.633.007l-1.832 2.1c-.118.138-.31.18-.476.11l-2.576-1.06c-.234-.097-.496.034-.565.275l-.737 2.687c-.048.172-.2.296-.378.31l-2.783.158c-.255.014-.434.248-.393.496l.503 2.741c.035.18-.055.358-.206.441L.279 9.754c-.22.124-.282.413-.138.613l1.647 2.252c.103.145.11.345.007.49L.183 15.38c-.145.207-.076.496.144.613l2.46 1.316c.158.083.247.262.213.44L2.538 20.5c-.04.248.145.482.4.489l2.783.117c.179.007.337.131.385.303l.779 2.68c.069.24.337.371.571.268l2.563-1.102c.165-.069.358-.027.482.103l1.86 2.074c.172.186.46.186.633-.007l1.832-2.101c.117-.138.31-.18.476-.11l2.576 1.06c.234.097.495-.034.564-.275l.737-2.686c.049-.172.2-.296.38-.31l2.782-.159c.255-.013.434-.248.392-.496l-.502-2.74c-.035-.18.055-.36.206-.442l2.439-1.35c.22-.11.282-.4.13-.606zm-12.425 5.144c-4.167 0-7.563-3.395-7.563-7.562 0-4.168 3.396-7.563 7.563-7.563s7.563 3.395 7.563 7.563c0 4.174-3.396 7.562-7.563 7.562z" transform="translate(-481 -23) translate(481 23)"/>
                <path d="M19.393 25.245c-.4.406-.958.647-1.557.647-.213 0-.427-.034-.627-.09l-1.777-.537-1.37 1.254c-.049.041-.09.083-.138.117l2.204 6.833c.076.24.386.296.544.096l1.605-2.06c.076-.103.214-.144.33-.11l2.5.73c.242.07.462-.158.387-.392l-2.101-6.488zM9.736 25.265l-1.777.538c-.207.062-.413.09-.627.09-.599 0-1.15-.242-1.556-.648L3.675 31.74c-.076.24.145.461.386.392l2.5-.73c.124-.034.255.007.33.11l1.605 2.06c.152.2.469.145.545-.096l2.204-6.833c-.049-.035-.097-.076-.138-.117l-1.37-1.26zM17.065 10.911l-2.852-.206L13.14 8.06c-.2-.496-.91-.496-1.11 0l-1.074 2.645-2.851.206c-.537.041-.751.71-.345 1.054l2.184 1.846-.682 2.776c-.131.523.44.936.895.654l2.425-1.508 2.424 1.508c.455.282 1.027-.13.896-.654l-.682-2.776 2.183-1.846c.414-.344.2-1.013-.337-1.054z" transform="translate(-481 -23) translate(481 23)"/>
            </g>
        </g>
    </g>
</svg>
