<?xml version="1.0" encoding="utf-8"?>
<!-- Generator: Adobe Illustrator 16.0.0, SVG Export Plug-In . SVG Version: 6.00 Build 0)  -->
<!DOCTYPE svg PUBLIC "-//W3C//DTD SVG 1.1//EN" "http://www.w3.org/Graphics/SVG/1.1/DTD/svg11.dtd">
<svg version="1.1" id="Layer_1" xmlns="http://www.w3.org/2000/svg" xmlns:xlink="http://www.w3.org/1999/xlink" x="0px" y="0px"
	 width="334px" height="277px" viewBox="0 0 334 277" enable-background="new 0 0 334 277" xml:space="preserve">
<g>
	<g>
		<g>
			<path fill="#FFBA08" d="M13.903,274.959c-4.558-23.58,10.368-47.305,29.941-61.221s43.274-20.406,65.895-28.475
				c44.452-15.857,87.574-39.675,116.661-76.844c13.742-17.563,23.996-37.639,37.663-55.261s31.983-33.261,54.026-36.65
				c30.282-4.658,60.756,16.398,72.865,44.543c12.108,28.145,8.253,61.197-4.039,89.263c-12.291,28.066-32.266,51.994-52.784,74.749
				c-25.847,28.662-52.992,56.151-81.328,82.356c-5.898,5.455-12.11,11.008-19.778,13.408c-9.388,2.94-19.522,0.736-29.107-1.481
				c-63.323-14.649-126.647-29.299-189.97-43.949"/>
		</g>
		<g>
			<path fill="#3A86FF" d="M97.661,278.209c11.663-10.631,23.209-22.121,29.347-36.661c7.73-18.307,5.949-38.991,7.164-58.826
				c1.216-19.835,7.088-41.687,24.128-51.91c18.298-10.978,41.676-4.325,62.866-6.839c32.924-3.906,58.518-29.589,80.514-54.396
				c13.532-15.262,30.838-32.298,50.886-28.533c16.402,3.08,27.289,20.096,28.63,36.731c1.337,16.636-4.748,32.9-11.259,48.268
				c-20.177,47.624-45.473,93.076-75.314,135.32c-6.137,8.688-12.83,17.557-22.354,22.294c-13.188,6.56-28.854,3.896-43.391,1.535
				c-42.121-6.846-84.86-9.887-127.526-9.075"/>
		</g>
		<g>
			<path fill="#06D6A0" d="M157.513,310.984c20.903-6.997,30.17-31.044,34.953-52.563c4.784-21.519,9.011-45.559,26.481-58.999
				c13.289-10.225,31.307-11.688,48.038-10.587c16.731,1.101,33.543,4.349,50.144,1.981c22.424-3.198,43.737-16.523,66.144-13.206
				c14.963,2.216,29.119,13.403,31.579,28.327c2.5,15.173-7.195,30.038-19.448,39.331c-12.253,9.291-27.005,14.573-40.479,21.985
				c-26.485,14.57-47.612,37.116-72.389,54.433c-24.777,17.315-56.586,29.479-85.062,19.338
				c-14.898-5.307-27.146-16.143-38.02-27.627"/>
		</g>
	</g>
	<g>
		<g>
			<path fill="#FFFFFF" d="M102.088,322.394c48.848-26.412,41.607-93.893,74.606-132.601c18.276-21.438,46.686-30.917,73.03-37.902
				c30.734-8.149,62.226-13.009,93.424-18.977c57.515-11.002,117.762-27.359,160.11-70.37c0.647-0.656-0.362-1.667-1.01-1.01
				c-40.805,41.441-98.413,57.94-153.862,68.91c-31.182,6.169-62.632,10.981-93.504,18.647
				c-25.324,6.289-51.29,14.475-71.372,31.837c-21.288,18.405-29.178,46.351-37.393,72.175
				c-8.272,26.007-19.405,54.352-44.751,68.056C100.557,321.598,101.277,322.831,102.088,322.394L102.088,322.394z"/>
		</g>
	</g>
	<g>
		<g>
			<path fill="#FFFFFF" d="M156.577,334.94c24.002-4.813,45.295-18.649,59.553-38.532c8.037-11.208,13.186-24.256,18.082-37.053
				c5.44-14.218,10.949-28.221,18.341-41.566c15.014-27.108,35.078-51.2,54.021-75.588c9.572-12.324,18.995-24.783,28.807-36.918
				c9.226-11.412,19.419-21.961,32.075-29.57c20.744-12.474,45.729-15.822,69.268-19.111c0.91-0.127,0.521-1.503-0.379-1.377
				c-27.182,3.798-55.391,8.112-78.008,24.868c-10.981,8.137-19.815,18.851-28.223,29.514
				c-9.867,12.515-19.565,25.166-29.342,37.753c-18.202,23.437-36.946,46.691-51.175,72.847
				c-13.722,25.224-19.222,54.694-36.511,77.96c-13.657,18.38-34.561,30.918-56.888,35.397
				C155.295,333.744,155.678,335.121,156.577,334.94L156.577,334.94z"/>
		</g>
	</g>
</g>
</svg>
