<?xml version="1.0" encoding="utf-8"?>
<!-- Generator: Adobe Illustrator 24.0.1, SVG Export Plug-In . SVG Version: 6.00 Build 0)  -->
<svg version="1.1" id="Layer_1" xmlns="http://www.w3.org/2000/svg" xmlns:xlink="http://www.w3.org/1999/xlink" x="0px" y="0px"
	 viewBox="0 0 112 27" style="enable-background:new 0 0 112 27;" xml:space="preserve">
<style type="text/css">
	.st0{fill:#FFFFFF;}
</style>
<g>
	<path class="st0" d="M17.5,17.8H8.2l-1.6,3.8C6.2,22.5,6,23.2,6,23.6c0,0.4,0.2,0.7,0.5,1s1.1,0.5,2.2,0.5v0.7H1.3v-0.7
		c1-0.2,1.6-0.4,1.9-0.7c0.6-0.6,1.3-1.7,2-3.4l8.4-19.6h0.6l8.3,19.8c0.7,1.6,1.3,2.6,1.8,3.1s1.3,0.7,2.3,0.8v0.7h-9.4v-0.7
		c0.9,0,1.6-0.2,1.9-0.5s0.5-0.6,0.5-1c0-0.5-0.2-1.3-0.7-2.4L17.5,17.8z M17,16.5l-4-9.6l-4.1,9.6H17z"/>
	<path class="st0" d="M50.9,19.2l0.6,0.1l-2,6.5H31v-0.7h0.9c1,0,1.7-0.3,2.2-1c0.2-0.4,0.4-1.2,0.4-2.6V6.2c0-1.5-0.2-2.4-0.5-2.8
		c-0.5-0.5-1.1-0.8-2-0.8H31V1.9h10.8v0.7c-1.3,0-2.2,0.1-2.7,0.4s-0.9,0.6-1,0.9s-0.3,1.3-0.3,2.7v15c0,1,0.1,1.6,0.3,2
		c0.1,0.2,0.4,0.4,0.7,0.5s1.2,0.2,2.7,0.2h1.7c1.8,0,3.1-0.1,3.8-0.4s1.4-0.7,2-1.4S50.3,20.7,50.9,19.2z"/>
	<path class="st0" d="M72.1,17.8h-9.2l-1.6,3.8c-0.4,0.9-0.6,1.6-0.6,2.1c0,0.4,0.2,0.7,0.5,1s1.1,0.5,2.2,0.5v0.7h-7.5v-0.7
		c1-0.2,1.6-0.4,1.9-0.7c0.6-0.6,1.3-1.7,2-3.4l8.4-19.6h0.6l8.3,19.8c0.7,1.6,1.3,2.6,1.8,3.1s1.3,0.7,2.3,0.8v0.7h-9.4v-0.7
		c0.9,0,1.6-0.2,1.9-0.5s0.5-0.6,0.5-1c0-0.5-0.2-1.3-0.7-2.4L72.1,17.8z M71.6,16.5l-4-9.6l-4.1,9.6H71.6z"/>
	<path class="st0" d="M84.4,1.9h6.5l14.6,17.9V6.1c0-1.5-0.2-2.4-0.5-2.7c-0.4-0.5-1.1-0.7-2.1-0.7h-0.8V1.9h8.3v0.7h-0.8
		c-1,0-1.7,0.3-2.1,0.9c-0.3,0.4-0.4,1.2-0.4,2.6v20.1h-0.6L90.7,7v14.7c0,1.5,0.2,2.4,0.5,2.7c0.4,0.5,1.1,0.7,2.1,0.7h0.8v0.7
		h-8.3v-0.7h0.8c1,0,1.7-0.3,2.2-0.9c0.3-0.4,0.4-1.2,0.4-2.6V5.1c-0.7-0.8-1.2-1.3-1.6-1.6S86.7,3,86,2.7c-0.3-0.1-0.9-0.2-1.5-0.2
		V1.9z"/>
</g>
</svg>
