<?xml version="1.0" encoding="utf-8"?>
<!-- Generator: Adobe Illustrator 16.0.0, SVG Export Plug-In . SVG Version: 6.00 Build 0)  -->
<!DOCTYPE svg PUBLIC "-//W3C//DTD SVG 1.1//EN" "http://www.w3.org/Graphics/SVG/1.1/DTD/svg11.dtd">
<svg version="1.1" xmlns="http://www.w3.org/2000/svg" xmlns:xlink="http://www.w3.org/1999/xlink" x="0px" y="0px" width="234px"
	 height="50px" viewBox="0 0 234 50" enable-background="new 0 0 234 50" xml:space="preserve">
<g id="Layer_1">
	<rect fill="#FFFFFF" width="234" height="50"/>
	<circle display="none" fill="#9B9B9B" cx="181" cy="30" r="6.5"/>
</g>
<g id="Layer_2">
	<rect x="0.125" fill="#F4B008" width="50" height="50"/>
	<g id="Layer_1_1_">
		<circle display="none" fill="#9B9B9B" cx="182.334" cy="30" r="6.5"/>
	</g>
	<g>
		<path fill="#CCCCCC" d="M55.477,13.97c-0.152-0.152-0.228-0.368-0.228-0.648v-6.72c0-0.28,0.084-0.504,0.252-0.672
			s0.396-0.252,0.684-0.252s0.516,0.084,0.684,0.252s0.252,0.392,0.252,0.672v6.072h3.072c0.583,0,0.876,0.256,0.876,0.768
			c0,0.504-0.292,0.756-0.876,0.756h-4.068C55.845,14.198,55.629,14.122,55.477,13.97z"/>
		<path fill="#CCCCCC" d="M62.989,13.916c-0.472-0.252-0.836-0.607-1.092-1.068c-0.256-0.46-0.384-1.002-0.384-1.626
			s0.127-1.166,0.384-1.626c0.256-0.46,0.62-0.814,1.092-1.062c0.472-0.248,1.02-0.372,1.644-0.372s1.172,0.124,1.644,0.372
			c0.472,0.248,0.836,0.602,1.092,1.062s0.384,1.002,0.384,1.626s-0.128,1.166-0.384,1.626s-0.62,0.816-1.092,1.068
			c-0.472,0.252-1.02,0.377-1.644,0.377S63.461,14.168,62.989,13.916z M65.953,11.222c0-0.568-0.114-0.992-0.342-1.272
			c-0.228-0.28-0.554-0.42-0.978-0.42c-0.88,0-1.32,0.564-1.32,1.692s0.44,1.692,1.32,1.692S65.953,12.35,65.953,11.222z"/>
		<path fill="#CCCCCC" d="M74.623,8.42c0.164,0.156,0.246,0.362,0.246,0.618v4.524c0,0.952-0.276,1.672-0.828,2.161
			c-0.552,0.486-1.36,0.73-2.424,0.73c-0.896,0-1.632-0.16-2.208-0.479c-0.144-0.08-0.256-0.18-0.336-0.293
			c-0.08-0.117-0.12-0.246-0.12-0.393c0-0.199,0.048-0.362,0.144-0.492c0.096-0.127,0.224-0.191,0.384-0.191
			c0.088,0,0.192,0.018,0.312,0.055c0.12,0.035,0.244,0.077,0.372,0.125c0.256,0.096,0.492,0.172,0.708,0.229
			c0.216,0.056,0.448,0.084,0.696,0.084c0.512,0,0.892-0.116,1.14-0.349s0.372-0.584,0.372-1.057v-0.648
			c-0.168,0.304-0.42,0.544-0.756,0.72c-0.336,0.176-0.712,0.264-1.128,0.264c-0.512,0-0.966-0.12-1.362-0.36
			c-0.396-0.24-0.706-0.582-0.93-1.026s-0.336-0.958-0.336-1.542c0-0.583,0.112-1.098,0.336-1.542
			c0.224-0.444,0.534-0.788,0.93-1.032c0.396-0.244,0.85-0.366,1.362-0.366c0.408,0,0.778,0.086,1.11,0.258s0.586,0.41,0.762,0.714
			v-0.12c0-0.256,0.082-0.458,0.246-0.606c0.164-0.147,0.382-0.222,0.654-0.222S74.459,8.264,74.623,8.42z M72.715,12.242
			c0.236-0.272,0.354-0.652,0.354-1.14c0-0.488-0.118-0.87-0.354-1.146c-0.236-0.276-0.566-0.414-0.99-0.414
			c-0.424,0-0.756,0.138-0.996,0.414c-0.24,0.276-0.36,0.658-0.36,1.146c0,0.488,0.12,0.868,0.36,1.14
			c0.24,0.272,0.572,0.408,0.996,0.408C72.149,12.65,72.479,12.514,72.715,12.242z"/>
		<path fill="#CCCCCC" d="M77.449,13.916c-0.472-0.252-0.836-0.607-1.092-1.068c-0.256-0.46-0.384-1.002-0.384-1.626
			s0.127-1.166,0.384-1.626c0.256-0.46,0.62-0.814,1.092-1.062c0.472-0.248,1.02-0.372,1.644-0.372s1.172,0.124,1.644,0.372
			c0.472,0.248,0.836,0.602,1.092,1.062s0.384,1.002,0.384,1.626s-0.128,1.166-0.384,1.626s-0.62,0.816-1.092,1.068
			c-0.472,0.252-1.02,0.377-1.644,0.377S77.921,14.168,77.449,13.916z M80.413,11.222c0-0.568-0.114-0.992-0.342-1.272
			c-0.228-0.28-0.554-0.42-0.978-0.42c-0.88,0-1.32,0.564-1.32,1.692s0.44,1.692,1.32,1.692S80.413,12.35,80.413,11.222z"/>
	</g>
	<rect x="92.5" y="6.167" fill="#CCCCCC" width="31.127" height="39"/>
	<rect x="126.645" y="6.167" fill="#CCCCCC" width="31.128" height="39"/>
	<rect x="161.425" y="6.167" fill="#CCCCCC" width="31.128" height="39"/>
	<rect x="196.205" y="6.167" fill="#CCCCCC" width="31.128" height="39"/>
	<circle fill="#CCCCCC" cx="57.667" cy="30.333" r="2.5"/>
	<circle fill="#CCCCCC" cx="64.314" cy="30.333" r="2.5"/>
	<circle fill="#CCCCCC" cx="71.683" cy="30.333" r="2.5"/>
	<path fill="#CCCCCC" d="M80.75,21.208c0,0.99-0.802,1.792-1.792,1.792h-21.5c-0.989,0-1.792-0.802-1.792-1.792l0,0
		c0-0.989,0.802-1.792,1.792-1.792h21.5C79.948,19.417,80.75,20.219,80.75,21.208L80.75,21.208z"/>
	<g>
		<path d="M30,30.143c0,1.038-0.61,1.557-1.829,1.557h-9.193c-0.511,0-0.919-0.152-1.224-0.457
			c-0.305-0.305-0.457-0.688-0.457-1.149c0-0.593,0.239-1.137,0.717-1.631l5.437-5.758c1.219-1.285,1.829-2.472,1.829-3.559
			c0-0.675-0.189-1.19-0.568-1.544c-0.379-0.354-0.931-0.531-1.656-0.531c-0.626,0-1.203,0.107-1.73,0.321
			c-0.527,0.214-1.137,0.527-1.829,0.939c-0.28,0.165-0.494,0.28-0.642,0.346c-0.148,0.066-0.321,0.099-0.519,0.099
			c-0.346,0-0.643-0.161-0.89-0.482c-0.248-0.321-0.371-0.696-0.371-1.125c0-0.313,0.054-0.572,0.161-0.778
			c0.107-0.206,0.284-0.391,0.532-0.556c0.741-0.543,1.594-0.976,2.558-1.297s1.932-0.482,2.904-0.482
			c1.17,0,2.195,0.198,3.077,0.593s1.561,0.96,2.039,1.693c0.478,0.733,0.717,1.578,0.717,2.533c0,1.005-0.21,1.936-0.63,2.792
			c-0.42,0.857-1.125,1.813-2.113,2.867l-3.88,4.078h5.734C29.391,28.61,30,29.121,30,30.143z"/>
	</g>
</g>
</svg>
