<?xml version="1.0" encoding="utf-8"?>
<!-- Generator: Adobe Illustrator 16.0.0, SVG Export Plug-In . SVG Version: 6.00 Build 0)  -->
<!DOCTYPE svg PUBLIC "-//W3C//DTD SVG 1.1//EN" "http://www.w3.org/Graphics/SVG/1.1/DTD/svg11.dtd">
<svg version="1.1" xmlns="http://www.w3.org/2000/svg" xmlns:xlink="http://www.w3.org/1999/xlink" x="0px" y="0px" width="234px"
	 height="50px" viewBox="0 0 234 50" enable-background="new 0 0 234 50" xml:space="preserve">
<g id="Layer_1">
	<rect fill="#FFFFFF" width="234" height="50"/>
	<circle display="none" fill="#9B9B9B" cx="181" cy="30" r="6.5"/>
</g>
<g id="Layer_2">
	<rect x="0.125" fill="#F4B008" width="50" height="50"/>
	<g id="Layer_1_1_">
		<circle display="none" fill="#9B9B9B" cx="182.334" cy="30" r="6.5"/>
	</g>
	<g>
		<path fill="#CCCCCC" d="M57.948,13.97c-0.151-0.152-0.228-0.368-0.228-0.648v-6.72c0-0.28,0.084-0.504,0.252-0.672
			s0.396-0.252,0.685-0.252c0.287,0,0.516,0.084,0.684,0.252s0.252,0.392,0.252,0.672v6.072h3.072c0.583,0,0.876,0.256,0.876,0.768
			c0,0.504-0.292,0.756-0.876,0.756h-4.068C58.317,14.198,58.1,14.122,57.948,13.97z"/>
		<path fill="#CCCCCC" d="M65.46,13.916c-0.472-0.252-0.836-0.607-1.093-1.068c-0.256-0.46-0.383-1.002-0.383-1.626
			s0.127-1.166,0.383-1.626c0.257-0.46,0.621-0.814,1.093-1.062c0.472-0.248,1.021-0.372,1.644-0.372
			c0.625,0,1.172,0.124,1.645,0.372c0.472,0.248,0.836,0.602,1.092,1.062s0.385,1.002,0.385,1.626s-0.129,1.166-0.385,1.626
			s-0.62,0.816-1.092,1.068c-0.473,0.252-1.02,0.377-1.645,0.377C66.481,14.293,65.932,14.168,65.46,13.916z M68.424,11.222
			c0-0.568-0.113-0.992-0.342-1.272c-0.229-0.28-0.555-0.42-0.979-0.42c-0.879,0-1.32,0.564-1.32,1.692s0.441,1.692,1.32,1.692
			C67.985,12.914,68.424,12.35,68.424,11.222z"/>
		<path fill="#CCCCCC" d="M77.094,8.42c0.164,0.156,0.246,0.362,0.246,0.618v4.524c0,0.952-0.275,1.672-0.828,2.161
			c-0.552,0.486-1.359,0.73-2.424,0.73c-0.896,0-1.632-0.16-2.208-0.479c-0.144-0.08-0.256-0.18-0.336-0.293
			c-0.08-0.117-0.12-0.246-0.12-0.393c0-0.199,0.048-0.362,0.145-0.492c0.096-0.127,0.224-0.191,0.383-0.191
			c0.089,0,0.193,0.018,0.313,0.055c0.12,0.035,0.244,0.077,0.372,0.125c0.257,0.096,0.492,0.172,0.708,0.229
			c0.217,0.056,0.448,0.084,0.696,0.084c0.512,0,0.892-0.116,1.14-0.349s0.372-0.584,0.372-1.057v-0.648
			c-0.168,0.304-0.42,0.544-0.756,0.72c-0.336,0.176-0.712,0.264-1.128,0.264c-0.512,0-0.967-0.12-1.362-0.36
			c-0.396-0.24-0.706-0.582-0.93-1.026s-0.336-0.958-0.336-1.542c0-0.583,0.112-1.098,0.336-1.542
			c0.224-0.444,0.534-0.788,0.93-1.032c0.396-0.244,0.851-0.366,1.362-0.366c0.408,0,0.777,0.086,1.109,0.258
			s0.586,0.41,0.763,0.714v-0.12c0-0.256,0.082-0.458,0.245-0.606c0.164-0.147,0.383-0.222,0.654-0.222
			C76.712,8.186,76.93,8.264,77.094,8.42z M75.186,12.242c0.236-0.272,0.354-0.652,0.354-1.14c0-0.488-0.118-0.87-0.354-1.146
			s-0.565-0.414-0.99-0.414c-0.424,0-0.756,0.138-0.996,0.414c-0.239,0.276-0.359,0.658-0.359,1.146c0,0.488,0.12,0.868,0.359,1.14
			c0.24,0.272,0.572,0.408,0.996,0.408C74.621,12.65,74.95,12.514,75.186,12.242z"/>
		<path fill="#CCCCCC" d="M79.92,13.916c-0.473-0.252-0.836-0.607-1.092-1.068c-0.256-0.46-0.385-1.002-0.385-1.626
			s0.127-1.166,0.385-1.626c0.256-0.46,0.619-0.814,1.092-1.062c0.473-0.248,1.02-0.372,1.645-0.372
			c0.623,0,1.172,0.124,1.644,0.372c0.472,0.248,0.836,0.602,1.092,1.062s0.384,1.002,0.384,1.626s-0.128,1.166-0.384,1.626
			s-0.62,0.816-1.092,1.068c-0.472,0.252-1.021,0.377-1.644,0.377C80.94,14.293,80.393,14.168,79.92,13.916z M82.884,11.222
			c0-0.568-0.114-0.992-0.342-1.272c-0.228-0.28-0.554-0.42-0.978-0.42c-0.881,0-1.32,0.564-1.32,1.692s0.439,1.692,1.32,1.692
			C82.444,12.914,82.884,12.35,82.884,11.222z"/>
	</g>
	<rect x="91.864" y="6.167" fill="#CCCCCC" width="31.128" height="39"/>
	<rect x="126.008" y="6.167" fill="#CCCCCC" width="31.129" height="39"/>
	<rect x="160.789" y="6.167" fill="#CCCCCC" width="31.127" height="39"/>
	<rect x="195.568" y="6.167" fill="#CCCCCC" width="31.129" height="39"/>
	<g>
		<path d="M25.133,20.975c0.793,0.475,1.415,1.137,1.865,1.988c0.45,0.851,0.675,1.816,0.675,2.896c0,1.13-0.254,2.14-0.761,3.031
			c-0.507,0.893-1.211,1.588-2.111,2.087s-1.915,0.748-3.043,0.748c-2.242,0-3.976-0.744-5.203-2.233
			c-1.228-1.488-1.841-3.616-1.841-6.381c0-1.849,0.286-3.464,0.859-4.847s1.395-2.442,2.467-3.179
			c1.071-0.736,2.319-1.104,3.743-1.104c0.933,0,1.874,0.156,2.823,0.466c0.949,0.311,1.759,0.745,2.43,1.301
			c0.229,0.18,0.396,0.373,0.503,0.577c0.106,0.205,0.159,0.454,0.159,0.749c0,0.425-0.119,0.79-0.355,1.092
			c-0.238,0.303-0.528,0.454-0.872,0.454c-0.213,0-0.397-0.028-0.552-0.085c-0.156-0.058-0.364-0.16-0.626-0.307
			c-0.654-0.393-1.239-0.699-1.755-0.92c-0.515-0.221-1.043-0.331-1.583-0.331c-1.015,0-1.82,0.466-2.417,1.399
			c-0.598,0.933-0.937,2.242-1.019,3.927c0.376-0.622,0.908-1.117,1.595-1.485c0.688-0.368,1.456-0.552,2.307-0.552
			C23.435,20.263,24.339,20.5,25.133,20.975z M23.39,27.994c0.466-0.507,0.699-1.178,0.699-2.013c0-0.818-0.233-1.48-0.699-1.988
			s-1.084-0.761-1.853-0.761c-0.77,0-1.391,0.254-1.865,0.761c-0.475,0.507-0.712,1.17-0.712,1.988c0,0.818,0.237,1.485,0.712,2
			c0.474,0.516,1.096,0.773,1.865,0.773C22.306,28.755,22.924,28.502,23.39,27.994z"/>
	</g>
</g>
</svg>
