<?xml version="1.0" encoding="utf-8"?>
<!-- Generator: Adobe Illustrator 16.0.0, SVG Export Plug-In . SVG Version: 6.00 Build 0)  -->
<!DOCTYPE svg PUBLIC "-//W3C//DTD SVG 1.1//EN" "http://www.w3.org/Graphics/SVG/1.1/DTD/svg11.dtd">
<svg version="1.1" xmlns="http://www.w3.org/2000/svg" xmlns:xlink="http://www.w3.org/1999/xlink" x="0px" y="0px" width="234px"
	 height="50px" viewBox="0 0 234 50" enable-background="new 0 0 234 50" xml:space="preserve">
<g id="Layer_1">
	<rect fill="#FFFFFF" width="234" height="50"/>
	<circle display="none" fill="#9B9B9B" cx="181" cy="30" r="6.5"/>
</g>
<g id="Layer_2">
	<rect x="0.125" fill="#F4B008" width="50" height="50"/>
	<g id="Layer_1_1_">
		<circle display="none" fill="#9B9B9B" cx="182.334" cy="30" r="6.5"/>
	</g>
	<rect x="57.72" y="6.167" fill="#CCCCCC" width="31.127" height="39"/>
	<rect x="91.864" y="6.167" fill="#CCCCCC" width="31.128" height="39"/>
	<rect x="126.645" y="6.167" fill="#CCCCCC" width="31.128" height="39"/>
	<rect x="161.425" y="6.167" fill="#CCCCCC" width="31.128" height="39"/>
	<rect x="196.259" y="6.167" fill="#CCCCCC" width="31.128" height="39"/>
	<g>
		<path d="M30.926,27.453c0,1.187-0.722,1.779-2.165,1.779h-1.098v1.691c0,0.752-0.208,1.325-0.623,1.721s-0.959,0.594-1.631,0.594
			c-0.673,0-1.216-0.198-1.631-0.594c-0.415-0.396-0.623-0.969-0.623-1.721v-1.691h-7.208c-0.614,0-1.098-0.182-1.454-0.548
			c-0.355-0.366-0.533-0.826-0.533-1.38s0.188-1.107,0.563-1.661l8.84-12.637c0.237-0.336,0.534-0.588,0.89-0.756
			s0.731-0.252,1.127-0.252c0.613,0,1.147,0.203,1.602,0.608c0.455,0.406,0.682,0.964,0.682,1.676v11.421h1.098
			C30.205,25.703,30.926,26.287,30.926,27.453z M18.616,25.703h4.539v-6.526L18.616,25.703z"/>
	</g>
</g>
</svg>
