<?xml version="1.0" encoding="utf-8"?>
<!-- Generator: Adobe Illustrator 16.0.0, SVG Export Plug-In . SVG Version: 6.00 Build 0)  -->
<!DOCTYPE svg PUBLIC "-//W3C//DTD SVG 1.1//EN" "http://www.w3.org/Graphics/SVG/1.1/DTD/svg11.dtd">
<svg version="1.1" xmlns="http://www.w3.org/2000/svg" xmlns:xlink="http://www.w3.org/1999/xlink" x="0px" y="0px" width="234px"
	 height="50px" viewBox="0 0 234 50" enable-background="new 0 0 234 50" xml:space="preserve">
<g id="Layer_1">
	<rect fill="#FFFFFF" width="234" height="50"/>
	<circle display="none" fill="#9B9B9B" cx="181" cy="30" r="6.5"/>
</g>
<g id="Layer_2">
	<rect x="0.125" fill="#F4B008" width="50" height="50"/>
	<g id="Layer_1_1_">
		<circle display="none" fill="#9B9B9B" cx="182.334" cy="30" r="6.5"/>
	</g>
	<rect x="57.72" y="6.167" fill="#CCCCCC" width="31.127" height="39"/>
	<rect x="91.864" y="6.167" fill="#CCCCCC" width="31.128" height="39"/>
	<rect x="126.645" y="6.167" fill="#CCCCCC" width="31.128" height="39"/>
	<rect x="161.425" y="6.167" fill="#CCCCCC" width="31.128" height="39"/>
	<circle fill="#CCCCCC" cx="204.25" cy="18.262" r="2.5"/>
	<circle fill="#CCCCCC" cx="210.897" cy="18.262" r="2.5"/>
	<circle fill="#CCCCCC" cx="218.266" cy="18.262" r="2.5"/>
	<path fill="#CCCCCC" d="M227.334,9.137c0,0.99-0.803,1.792-1.793,1.792h-21.5c-0.988,0-1.791-0.802-1.791-1.792l0,0
		c0-0.989,0.803-1.792,1.791-1.792h21.5C226.531,7.346,227.334,8.148,227.334,9.137L227.334,9.137z"/>
	<g>
		<path d="M29.083,24.733c0.59,0.784,0.886,1.74,0.886,2.868c0,1.075-0.278,2.009-0.833,2.802s-1.353,1.405-2.393,1.837
			c-1.04,0.433-2.247,0.648-3.622,0.648c-1.146,0-2.243-0.168-3.292-0.503c-1.048-0.334-1.952-0.802-2.709-1.4
			c-0.264-0.193-0.454-0.405-0.568-0.634c-0.115-0.229-0.172-0.494-0.172-0.793c0-0.459,0.132-0.852,0.396-1.178
			s0.582-0.488,0.952-0.488c0.212,0,0.405,0.03,0.582,0.093c0.176,0.061,0.396,0.171,0.661,0.329
			c0.775,0.441,1.445,0.777,2.009,1.005c0.564,0.23,1.225,0.344,1.983,0.344c1.075,0,1.859-0.197,2.353-0.595
			c0.493-0.396,0.74-1.018,0.74-1.863c0-0.829-0.256-1.428-0.766-1.797c-0.512-0.371-1.332-0.556-2.459-0.556h-1.56
			c-0.459,0-0.82-0.159-1.084-0.476c-0.265-0.317-0.396-0.696-0.396-1.137c0-0.422,0.132-0.793,0.396-1.11
			c0.264-0.317,0.625-0.476,1.084-0.476h1.11c1.074,0,1.873-0.185,2.392-0.555c0.52-0.371,0.78-0.942,0.78-1.719
			c0-0.74-0.221-1.317-0.661-1.731c-0.441-0.414-1.057-0.622-1.85-0.622c-0.652,0-1.261,0.115-1.825,0.344s-1.216,0.564-1.957,1.005
			c-0.264,0.158-0.485,0.269-0.66,0.33c-0.177,0.063-0.371,0.093-0.582,0.093c-0.37,0-0.688-0.163-0.952-0.489
			c-0.264-0.326-0.396-0.718-0.396-1.176c0-0.317,0.058-0.585,0.172-0.806c0.115-0.221,0.305-0.427,0.568-0.621
			c0.741-0.599,1.626-1.066,2.657-1.401c1.031-0.334,2.084-0.502,3.159-0.502c1.251,0,2.353,0.208,3.305,0.621
			c0.952,0.415,1.683,1.001,2.194,1.759c0.511,0.757,0.767,1.639,0.767,2.644c0,1.004-0.26,1.881-0.78,2.63
			c-0.52,0.75-1.238,1.292-2.154,1.626C27.65,23.398,28.492,23.949,29.083,24.733z"/>
	</g>
</g>
</svg>
