<?xml version="1.0" encoding="utf-8"?>
<!-- Generator: Adobe Illustrator 16.0.0, SVG Export Plug-In . SVG Version: 6.00 Build 0)  -->
<!DOCTYPE svg PUBLIC "-//W3C//DTD SVG 1.1//EN" "http://www.w3.org/Graphics/SVG/1.1/DTD/svg11.dtd">
<svg version="1.1" xmlns="http://www.w3.org/2000/svg" xmlns:xlink="http://www.w3.org/1999/xlink" x="0px" y="0px" width="234px"
	 height="50px" viewBox="0 0 234 50" enable-background="new 0 0 234 50" xml:space="preserve">
<g id="Layer_1">
	<rect fill="#FFFFFF" width="234" height="50"/>
	<circle display="none" fill="#9B9B9B" cx="181" cy="30" r="6.5"/>
</g>
<g id="Layer_2">
	<rect x="0.125" fill="#F4B008" width="50" height="50"/>
	<g id="Layer_1_1_">
		<circle display="none" fill="#9B9B9B" cx="182.334" cy="30" r="6.5"/>
	</g>
	<g>
		<path fill="#CCCCCC" d="M57.948,13.97c-0.151-0.152-0.228-0.368-0.228-0.648v-6.72c0-0.28,0.084-0.504,0.252-0.672
			s0.396-0.252,0.685-0.252c0.287,0,0.516,0.084,0.684,0.252s0.252,0.392,0.252,0.672v6.072h3.072c0.583,0,0.876,0.256,0.876,0.768
			c0,0.504-0.292,0.756-0.876,0.756h-4.068C58.317,14.198,58.1,14.122,57.948,13.97z"/>
		<path fill="#CCCCCC" d="M65.46,13.916c-0.472-0.252-0.836-0.607-1.093-1.068c-0.256-0.46-0.383-1.002-0.383-1.626
			s0.127-1.166,0.383-1.626c0.257-0.46,0.621-0.814,1.093-1.062c0.472-0.248,1.021-0.372,1.644-0.372
			c0.625,0,1.172,0.124,1.645,0.372c0.472,0.248,0.836,0.602,1.092,1.062s0.385,1.002,0.385,1.626s-0.129,1.166-0.385,1.626
			s-0.62,0.816-1.092,1.068c-0.473,0.252-1.02,0.377-1.645,0.377C66.481,14.293,65.932,14.168,65.46,13.916z M68.424,11.222
			c0-0.568-0.113-0.992-0.342-1.272c-0.229-0.28-0.555-0.42-0.979-0.42c-0.879,0-1.32,0.564-1.32,1.692s0.441,1.692,1.32,1.692
			C67.985,12.914,68.424,12.35,68.424,11.222z"/>
		<path fill="#CCCCCC" d="M77.094,8.42c0.164,0.156,0.246,0.362,0.246,0.618v4.524c0,0.952-0.275,1.672-0.828,2.161
			c-0.552,0.486-1.359,0.73-2.424,0.73c-0.896,0-1.632-0.16-2.208-0.479c-0.144-0.08-0.256-0.18-0.336-0.293
			c-0.08-0.117-0.12-0.246-0.12-0.393c0-0.199,0.048-0.362,0.145-0.492c0.096-0.127,0.224-0.191,0.383-0.191
			c0.089,0,0.193,0.018,0.313,0.055c0.12,0.035,0.244,0.077,0.372,0.125c0.257,0.096,0.492,0.172,0.708,0.229
			c0.217,0.056,0.448,0.084,0.696,0.084c0.512,0,0.892-0.116,1.14-0.349s0.372-0.584,0.372-1.057v-0.648
			c-0.168,0.304-0.42,0.544-0.756,0.72c-0.336,0.176-0.712,0.264-1.128,0.264c-0.512,0-0.967-0.12-1.362-0.36
			c-0.396-0.24-0.706-0.582-0.93-1.026s-0.336-0.958-0.336-1.542c0-0.583,0.112-1.098,0.336-1.542
			c0.224-0.444,0.534-0.788,0.93-1.032c0.396-0.244,0.851-0.366,1.362-0.366c0.408,0,0.777,0.086,1.109,0.258
			s0.586,0.41,0.763,0.714v-0.12c0-0.256,0.082-0.458,0.245-0.606c0.164-0.147,0.383-0.222,0.654-0.222
			C76.712,8.186,76.93,8.264,77.094,8.42z M75.186,12.242c0.236-0.272,0.354-0.652,0.354-1.14c0-0.488-0.118-0.87-0.354-1.146
			s-0.565-0.414-0.99-0.414c-0.424,0-0.756,0.138-0.996,0.414c-0.239,0.276-0.359,0.658-0.359,1.146c0,0.488,0.12,0.868,0.359,1.14
			c0.24,0.272,0.572,0.408,0.996,0.408C74.621,12.65,74.95,12.514,75.186,12.242z"/>
		<path fill="#CCCCCC" d="M79.92,13.916c-0.473-0.252-0.836-0.607-1.092-1.068c-0.256-0.46-0.385-1.002-0.385-1.626
			s0.127-1.166,0.385-1.626c0.256-0.46,0.619-0.814,1.092-1.062c0.473-0.248,1.02-0.372,1.645-0.372
			c0.623,0,1.172,0.124,1.644,0.372c0.472,0.248,0.836,0.602,1.092,1.062s0.384,1.002,0.384,1.626s-0.128,1.166-0.384,1.626
			s-0.62,0.816-1.092,1.068c-0.472,0.252-1.021,0.377-1.644,0.377C80.94,14.293,80.393,14.168,79.92,13.916z M82.884,11.222
			c0-0.568-0.114-0.992-0.342-1.272c-0.228-0.28-0.554-0.42-0.978-0.42c-0.881,0-1.32,0.564-1.32,1.692s0.439,1.692,1.32,1.692
			C82.444,12.914,82.884,12.35,82.884,11.222z"/>
	</g>
	<rect x="91.864" y="6.167" fill="#CCCCCC" width="31.128" height="39"/>
	<rect x="126.008" y="6.167" fill="#CCCCCC" width="31.129" height="39"/>
	<rect x="160.789" y="6.167" fill="#CCCCCC" width="31.127" height="39"/>
	<rect x="195.568" y="6.167" fill="#CCCCCC" width="31.129" height="39"/>
	<path fill="#CCCCCC" d="M76.167,22.167c0,1.564-1.269,2.833-2.833,2.833H61.5c-1.564,0-2.833-1.269-2.833-2.833l0,0
		c0-1.565,1.269-2.833,2.833-2.833h11.834C74.898,19.333,76.167,20.602,76.167,22.167L76.167,22.167z"/>
	<g>
		<path d="M28.657,25.936c0.498,0.672,0.747,1.491,0.747,2.457c0,1.419-0.543,2.528-1.63,3.329c-1.087,0.8-2.589,1.199-4.506,1.199
			c-1.917,0-3.419-0.399-4.506-1.199c-1.087-0.801-1.63-1.91-1.63-3.329c0-0.996,0.249-1.826,0.747-2.491
			c0.498-0.664,1.215-1.124,2.151-1.381c-0.785-0.302-1.396-0.77-1.834-1.404c-0.438-0.634-0.656-1.373-0.656-2.219
			c0-1.328,0.513-2.381,1.54-3.159c1.026-0.777,2.423-1.166,4.189-1.166c1.781,0,3.181,0.385,4.2,1.155
			c1.019,0.77,1.528,1.827,1.528,3.17c0,0.86-0.219,1.615-0.656,2.264c-0.438,0.649-1.042,1.102-1.812,1.359
			C27.449,24.792,28.159,25.264,28.657,25.936z M26.121,28.121c0-1.404-0.951-2.106-2.853-2.106s-2.853,0.702-2.853,2.106
			c0,1.403,0.951,2.105,2.853,2.105S26.121,29.524,26.121,28.121z M20.845,21.282c0,1.359,0.808,2.038,2.423,2.038
			s2.423-0.679,2.423-2.038c0-1.343-0.808-2.015-2.423-2.015S20.845,19.939,20.845,21.282z"/>
	</g>
</g>
</svg>
