<?xml version="1.0" encoding="utf-8"?>
<!-- Generator: Adobe Illustrator 16.0.0, SVG Export Plug-In . SVG Version: 6.00 Build 0)  -->
<!DOCTYPE svg PUBLIC "-//W3C//DTD SVG 1.1//EN" "http://www.w3.org/Graphics/SVG/1.1/DTD/svg11.dtd">
<svg version="1.1" xmlns="http://www.w3.org/2000/svg" xmlns:xlink="http://www.w3.org/1999/xlink" x="0px" y="0px" width="234px"
	 height="50px" viewBox="0 0 234 50" enable-background="new 0 0 234 50" xml:space="preserve">
<g id="Layer_1">
	<rect fill="#FFFFFF" width="234" height="50"/>
	<circle display="none" fill="#9B9B9B" cx="181" cy="30" r="6.5"/>
</g>
<g id="Layer_2">
	<rect x="0.125" fill="#F4B008" width="50" height="50"/>
	<g id="Layer_1_1_">
		<circle display="none" fill="#9B9B9B" cx="182.334" cy="30" r="6.5"/>
	</g>
	<g>
		<path fill="#CCCCCC" d="M198.514,13.97c-0.151-0.152-0.228-0.368-0.228-0.648v-6.72c0-0.28,0.084-0.504,0.252-0.672
			s0.396-0.252,0.685-0.252c0.287,0,0.516,0.084,0.684,0.252s0.252,0.392,0.252,0.672v6.072h3.072c0.583,0,0.876,0.256,0.876,0.768
			c0,0.504-0.292,0.756-0.876,0.756h-4.068C198.883,14.198,198.666,14.122,198.514,13.97z"/>
		<path fill="#CCCCCC" d="M206.026,13.916c-0.472-0.252-0.836-0.607-1.093-1.068c-0.256-0.46-0.383-1.002-0.383-1.626
			s0.127-1.166,0.383-1.626c0.257-0.46,0.621-0.814,1.093-1.062c0.472-0.248,1.021-0.372,1.644-0.372
			c0.625,0,1.172,0.124,1.645,0.372c0.472,0.248,0.836,0.602,1.092,1.062s0.385,1.002,0.385,1.626s-0.129,1.166-0.385,1.626
			s-0.62,0.816-1.092,1.068c-0.473,0.252-1.02,0.377-1.645,0.377C207.047,14.293,206.498,14.168,206.026,13.916z M208.99,11.222
			c0-0.568-0.113-0.992-0.342-1.272c-0.229-0.28-0.555-0.42-0.979-0.42c-0.879,0-1.32,0.564-1.32,1.692s0.441,1.692,1.32,1.692
			C208.551,12.914,208.99,12.35,208.99,11.222z"/>
		<path fill="#CCCCCC" d="M217.66,8.42c0.164,0.156,0.246,0.362,0.246,0.618v4.524c0,0.952-0.275,1.672-0.828,2.161
			c-0.552,0.486-1.359,0.73-2.424,0.73c-0.896,0-1.632-0.16-2.208-0.479c-0.144-0.08-0.256-0.18-0.336-0.293
			c-0.08-0.117-0.12-0.246-0.12-0.393c0-0.199,0.048-0.362,0.145-0.492c0.096-0.127,0.224-0.191,0.383-0.191
			c0.089,0,0.193,0.018,0.313,0.055c0.12,0.035,0.244,0.077,0.372,0.125c0.257,0.096,0.492,0.172,0.708,0.229
			c0.217,0.056,0.448,0.084,0.696,0.084c0.512,0,0.892-0.116,1.14-0.349s0.372-0.584,0.372-1.057v-0.648
			c-0.168,0.304-0.42,0.544-0.756,0.72c-0.336,0.176-0.712,0.264-1.128,0.264c-0.512,0-0.967-0.12-1.362-0.36
			c-0.396-0.24-0.706-0.582-0.93-1.026s-0.336-0.958-0.336-1.542c0-0.583,0.112-1.098,0.336-1.542
			c0.224-0.444,0.534-0.788,0.93-1.032c0.396-0.244,0.851-0.366,1.362-0.366c0.408,0,0.777,0.086,1.109,0.258
			s0.586,0.41,0.763,0.714v-0.12c0-0.256,0.082-0.458,0.245-0.606c0.164-0.147,0.383-0.222,0.654-0.222
			C217.278,8.186,217.496,8.264,217.66,8.42z M215.752,12.242c0.236-0.272,0.354-0.652,0.354-1.14c0-0.488-0.118-0.87-0.354-1.146
			s-0.565-0.414-0.99-0.414c-0.424,0-0.756,0.138-0.996,0.414c-0.239,0.276-0.359,0.658-0.359,1.146c0,0.488,0.12,0.868,0.359,1.14
			c0.24,0.272,0.572,0.408,0.996,0.408C215.187,12.65,215.516,12.514,215.752,12.242z"/>
		<path fill="#CCCCCC" d="M220.486,13.916c-0.473-0.252-0.836-0.607-1.092-1.068c-0.256-0.46-0.385-1.002-0.385-1.626
			s0.127-1.166,0.385-1.626c0.256-0.46,0.619-0.814,1.092-1.062c0.473-0.248,1.02-0.372,1.645-0.372
			c0.623,0,1.172,0.124,1.644,0.372c0.472,0.248,0.836,0.602,1.092,1.062s0.384,1.002,0.384,1.626s-0.128,1.166-0.384,1.626
			s-0.62,0.816-1.092,1.068c-0.472,0.252-1.021,0.377-1.644,0.377C221.506,14.293,220.959,14.168,220.486,13.916z M223.45,11.222
			c0-0.568-0.114-0.992-0.342-1.272c-0.228-0.28-0.554-0.42-0.978-0.42c-0.881,0-1.32,0.564-1.32,1.692s0.439,1.692,1.32,1.692
			C223.01,12.914,223.45,12.35,223.45,11.222z"/>
	</g>
	<rect x="57.72" y="6.167" fill="#CCCCCC" width="31.127" height="39"/>
	<rect x="91.864" y="6.167" fill="#CCCCCC" width="31.128" height="39"/>
	<rect x="126.645" y="6.167" fill="#CCCCCC" width="31.128" height="39"/>
	<rect x="161.425" y="6.167" fill="#CCCCCC" width="31.128" height="39"/>
	<path fill="#CCCCCC" d="M223.787,21.208c0,0.99-0.803,1.792-1.792,1.792h-21.5c-0.989,0-1.792-0.802-1.792-1.792l0,0
		c0-0.989,0.803-1.792,1.792-1.792h21.5C222.984,19.417,223.787,20.219,223.787,21.208L223.787,21.208z"/>
	<g>
		<path d="M25.982,21.261c0.83,0.464,1.473,1.111,1.929,1.941s0.684,1.791,0.684,2.882c0,1.139-0.269,2.148-0.806,3.027
			s-1.29,1.563-2.258,2.051c-0.969,0.488-2.088,0.732-3.357,0.732c-1.01,0-1.994-0.155-2.955-0.464s-1.791-0.74-2.491-1.294
			c-0.244-0.179-0.415-0.37-0.513-0.574c-0.098-0.203-0.146-0.451-0.146-0.744c0-0.424,0.118-0.785,0.354-1.087
			c0.236-0.301,0.525-0.451,0.867-0.451c0.195,0,0.374,0.028,0.537,0.085c0.163,0.058,0.374,0.158,0.635,0.305
			c0.651,0.392,1.245,0.696,1.782,0.916c0.538,0.22,1.124,0.33,1.758,0.33c0.993,0,1.746-0.229,2.258-0.684
			c0.513-0.456,0.77-1.132,0.77-2.026c0-0.847-0.265-1.515-0.794-2.003s-1.241-0.732-2.136-0.732c-0.554,0-1.059,0.069-1.514,0.208
			c-0.456,0.139-0.952,0.371-1.489,0.696c-0.342,0.195-0.684,0.293-1.025,0.293c-0.391,0-0.72-0.118-0.989-0.354
			c-0.269-0.236-0.403-0.549-0.403-0.94v-7.105c0-0.569,0.155-1.009,0.464-1.318c0.309-0.309,0.749-0.464,1.318-0.464h7.862
			c1.205,0,1.807,0.48,1.807,1.44c0,0.977-0.602,1.465-1.807,1.465H20.39v3.833c0.782-0.439,1.701-0.659,2.759-0.659
			S25.152,20.797,25.982,21.261z"/>
	</g>
</g>
</svg>
