<?xml version="1.0" encoding="utf-8"?>
<!-- Generator: Adobe Illustrator 16.0.0, SVG Export Plug-In . SVG Version: 6.00 Build 0)  -->
<!DOCTYPE svg PUBLIC "-//W3C//DTD SVG 1.1//EN" "http://www.w3.org/Graphics/SVG/1.1/DTD/svg11.dtd">
<svg version="1.1" xmlns="http://www.w3.org/2000/svg" xmlns:xlink="http://www.w3.org/1999/xlink" x="0px" y="0px" width="234px"
	 height="50px" viewBox="0 0 234 50" enable-background="new 0 0 234 50" xml:space="preserve">
<g id="Layer_1">
	<rect fill="#FFFFFF" width="234" height="50"/>
	<circle display="none" fill="#9B9B9B" cx="181" cy="30" r="6.5"/>
</g>
<g id="Layer_2">
	<rect x="0.125" fill="#F4B008" width="50" height="50"/>
	<g id="Layer_1_1_">
		<circle display="none" fill="#9B9B9B" cx="182.334" cy="30" r="6.5"/>
	</g>
	<rect x="50.968" fill="#CCCCCC" width="183.032" height="8.271"/>
	<g>
		<path fill="#CCCCCC" d="M52.489,24.261c-0.152-0.152-0.228-0.368-0.228-0.648v-6.72c0-0.28,0.084-0.504,0.252-0.672
			s0.396-0.252,0.684-0.252s0.516,0.084,0.684,0.252s0.252,0.392,0.252,0.672v6.072h3.072c0.583,0,0.876,0.256,0.876,0.768
			c0,0.504-0.292,0.756-0.876,0.756h-4.068C52.857,24.489,52.642,24.413,52.489,24.261z"/>
		<path fill="#CCCCCC" d="M60.001,24.207c-0.472-0.252-0.836-0.607-1.092-1.068c-0.256-0.46-0.384-1.002-0.384-1.626
			s0.127-1.166,0.384-1.626c0.256-0.46,0.62-0.814,1.092-1.062c0.472-0.248,1.02-0.372,1.644-0.372s1.172,0.124,1.644,0.372
			c0.472,0.248,0.836,0.602,1.092,1.062s0.384,1.002,0.384,1.626s-0.128,1.166-0.384,1.626s-0.62,0.816-1.092,1.068
			c-0.472,0.252-1.02,0.377-1.644,0.377S60.473,24.459,60.001,24.207z M62.965,21.513c0-0.568-0.114-0.992-0.342-1.272
			c-0.228-0.28-0.554-0.42-0.978-0.42c-0.88,0-1.32,0.564-1.32,1.692s0.44,1.692,1.32,1.692S62.965,22.641,62.965,21.513z"/>
		<path fill="#CCCCCC" d="M71.635,18.711c0.164,0.156,0.246,0.362,0.246,0.618v4.524c0,0.952-0.276,1.672-0.828,2.161
			c-0.552,0.486-1.36,0.73-2.424,0.73c-0.896,0-1.632-0.16-2.208-0.479c-0.144-0.08-0.256-0.18-0.336-0.293
			c-0.08-0.117-0.12-0.246-0.12-0.393c0-0.199,0.048-0.362,0.144-0.492c0.096-0.127,0.224-0.191,0.384-0.191
			c0.088,0,0.192,0.018,0.312,0.055c0.12,0.035,0.244,0.077,0.372,0.125c0.256,0.096,0.492,0.172,0.708,0.229
			c0.216,0.056,0.448,0.084,0.696,0.084c0.512,0,0.892-0.116,1.14-0.349s0.372-0.584,0.372-1.057v-0.648
			c-0.168,0.304-0.42,0.544-0.756,0.72c-0.336,0.176-0.712,0.264-1.128,0.264c-0.512,0-0.966-0.12-1.362-0.36
			c-0.396-0.24-0.706-0.582-0.93-1.026s-0.336-0.958-0.336-1.542c0-0.583,0.112-1.098,0.336-1.542
			c0.224-0.444,0.534-0.788,0.93-1.032c0.396-0.244,0.85-0.366,1.362-0.366c0.408,0,0.778,0.086,1.11,0.258s0.586,0.41,0.762,0.714
			v-0.12c0-0.256,0.082-0.458,0.246-0.606c0.164-0.147,0.382-0.222,0.654-0.222S71.471,18.555,71.635,18.711z M69.728,22.533
			c0.236-0.272,0.354-0.652,0.354-1.14c0-0.488-0.118-0.87-0.354-1.146c-0.236-0.276-0.566-0.414-0.99-0.414
			c-0.424,0-0.756,0.138-0.996,0.414c-0.24,0.276-0.36,0.658-0.36,1.146c0,0.488,0.12,0.868,0.36,1.14
			c0.24,0.272,0.572,0.408,0.996,0.408C69.162,22.941,69.491,22.805,69.728,22.533z"/>
		<path fill="#CCCCCC" d="M74.461,24.207c-0.472-0.252-0.836-0.607-1.092-1.068c-0.256-0.46-0.384-1.002-0.384-1.626
			s0.127-1.166,0.384-1.626c0.256-0.46,0.62-0.814,1.092-1.062c0.472-0.248,1.02-0.372,1.644-0.372s1.172,0.124,1.644,0.372
			c0.472,0.248,0.836,0.602,1.092,1.062s0.384,1.002,0.384,1.626s-0.128,1.166-0.384,1.626s-0.62,0.816-1.092,1.068
			c-0.472,0.252-1.02,0.377-1.644,0.377S74.934,24.459,74.461,24.207z M77.425,21.513c0-0.568-0.114-0.992-0.342-1.272
			c-0.228-0.28-0.554-0.42-0.978-0.42c-0.88,0-1.32,0.564-1.32,1.692s0.44,1.692,1.32,1.692S77.425,22.641,77.425,21.513z"/>
	</g>
	<rect x="223.922" y="17.914" fill="#CCCCCC" width="6.133" height="6.131"/>
	<rect x="214.547" y="17.914" fill="#CCCCCC" width="6.133" height="6.131"/>
	<rect x="206.422" y="17.914" fill="#CCCCCC" width="6.133" height="6.131"/>
	<g>
		<rect x="84.261" y="20.228" fill="#CCCCCC" width="14.25" height="3"/>
		<rect x="101.511" y="20.228" fill="#CCCCCC" width="14.25" height="3"/>
		<rect x="118.136" y="20.228" fill="#CCCCCC" width="14.25" height="3"/>
		<rect x="135.386" y="20.228" fill="#CCCCCC" width="14.25" height="3"/>
		<rect x="152.532" y="20.228" fill="#CCCCCC" width="14.25" height="3"/>
		<rect x="169.782" y="20.228" fill="#CCCCCC" width="14.25" height="3"/>
	</g>
	<g>
		<path d="M22.448,32.173c0,1.112-0.646,1.671-1.938,1.671h-9.075c-1.309,0-1.963-0.559-1.963-1.671
			c0-1.098,0.654-1.646,1.963-1.646h2.469V19.673l-2.336,1.407c-0.265,0.159-0.53,0.239-0.795,0.239
			c-0.443,0-0.819-0.186-1.127-0.557c-0.31-0.372-0.464-0.787-0.464-1.248c0-0.618,0.273-1.088,0.821-1.407l4.193-2.52
			c0.62-0.372,1.239-0.558,1.858-0.558c0.583,0,1.061,0.181,1.433,0.543c0.372,0.363,0.557,0.854,0.557,1.473v13.481h2.467
			C21.801,30.527,22.448,31.075,22.448,32.173z"/>
		<path d="M25.777,31.615c-1.194-1.646-1.791-4.024-1.791-7.138c0-3.096,0.597-5.467,1.791-7.112
			c1.194-1.645,2.922-2.467,5.188-2.467c2.264,0,3.993,0.823,5.187,2.467c1.194,1.646,1.792,4.016,1.792,7.112
			c0,3.114-0.597,5.493-1.792,7.138c-1.194,1.645-2.923,2.466-5.187,2.466C28.699,34.081,26.971,33.26,25.777,31.615z
			 M33.206,29.385c0.469-1.025,0.705-2.66,0.705-4.908c0-2.264-0.236-3.901-0.705-4.91c-0.468-1.008-1.216-1.513-2.241-1.513
			c-1.026,0-1.774,0.509-2.242,1.526c-0.469,1.019-0.703,2.65-0.703,4.897c0,2.248,0.234,3.882,0.703,4.908
			c0.468,1.028,1.216,1.54,2.242,1.54C31.99,30.925,32.738,30.413,33.206,29.385z"/>
	</g>
</g>
</svg>
