<?xml version="1.0" encoding="utf-8"?>
<!-- Generator: Adobe Illustrator 16.0.0, SVG Export Plug-In . SVG Version: 6.00 Build 0)  -->
<!DOCTYPE svg PUBLIC "-//W3C//DTD SVG 1.1//EN" "http://www.w3.org/Graphics/SVG/1.1/DTD/svg11.dtd">
<svg version="1.1" xmlns="http://www.w3.org/2000/svg" xmlns:xlink="http://www.w3.org/1999/xlink" x="0px" y="0px" width="234px"
	 height="50px" viewBox="0 0 234 50" enable-background="new 0 0 234 50" xml:space="preserve">
<g id="Layer_1">
	<rect fill="#FFFFFF" width="234" height="50"/>
	<circle display="none" fill="#9B9B9B" cx="181" cy="30" r="6.5"/>
</g>
<g id="Layer_2">
	<rect x="0.125" fill="#F4B008" width="50" height="50"/>
	<g id="Layer_1_1_">
		<circle display="none" fill="#9B9B9B" cx="182.334" cy="30" r="6.5"/>
	</g>
	<rect x="50.968" fill="#CCCCCC" width="183.032" height="8.271"/>
	<g>
		<path fill="#CCCCCC" d="M52.489,24.261c-0.152-0.152-0.228-0.368-0.228-0.648v-6.72c0-0.28,0.084-0.504,0.252-0.672
			s0.396-0.252,0.684-0.252s0.516,0.084,0.684,0.252s0.252,0.392,0.252,0.672v6.072h3.072c0.583,0,0.876,0.256,0.876,0.768
			c0,0.504-0.292,0.756-0.876,0.756h-4.068C52.857,24.489,52.642,24.413,52.489,24.261z"/>
		<path fill="#CCCCCC" d="M60.001,24.207c-0.472-0.252-0.836-0.607-1.092-1.068c-0.256-0.46-0.384-1.002-0.384-1.626
			s0.127-1.166,0.384-1.626c0.256-0.46,0.62-0.814,1.092-1.062c0.472-0.248,1.02-0.372,1.644-0.372s1.172,0.124,1.644,0.372
			c0.472,0.248,0.836,0.602,1.092,1.062s0.384,1.002,0.384,1.626s-0.128,1.166-0.384,1.626s-0.62,0.816-1.092,1.068
			c-0.472,0.252-1.02,0.377-1.644,0.377S60.473,24.459,60.001,24.207z M62.965,21.513c0-0.568-0.114-0.992-0.342-1.272
			c-0.228-0.28-0.554-0.42-0.978-0.42c-0.88,0-1.32,0.564-1.32,1.692s0.44,1.692,1.32,1.692S62.965,22.641,62.965,21.513z"/>
		<path fill="#CCCCCC" d="M71.635,18.711c0.164,0.156,0.246,0.362,0.246,0.618v4.524c0,0.952-0.276,1.672-0.828,2.161
			c-0.552,0.486-1.36,0.73-2.424,0.73c-0.896,0-1.632-0.16-2.208-0.479c-0.144-0.08-0.256-0.18-0.336-0.293
			c-0.08-0.117-0.12-0.246-0.12-0.393c0-0.199,0.048-0.362,0.144-0.492c0.096-0.127,0.224-0.191,0.384-0.191
			c0.088,0,0.192,0.018,0.312,0.055c0.12,0.035,0.244,0.077,0.372,0.125c0.256,0.096,0.492,0.172,0.708,0.229
			c0.216,0.056,0.448,0.084,0.696,0.084c0.512,0,0.892-0.116,1.14-0.349s0.372-0.584,0.372-1.057v-0.648
			c-0.168,0.304-0.42,0.544-0.756,0.72c-0.336,0.176-0.712,0.264-1.128,0.264c-0.512,0-0.966-0.12-1.362-0.36
			c-0.396-0.24-0.706-0.582-0.93-1.026s-0.336-0.958-0.336-1.542c0-0.583,0.112-1.098,0.336-1.542
			c0.224-0.444,0.534-0.788,0.93-1.032c0.396-0.244,0.85-0.366,1.362-0.366c0.408,0,0.778,0.086,1.11,0.258s0.586,0.41,0.762,0.714
			v-0.12c0-0.256,0.082-0.458,0.246-0.606c0.164-0.147,0.382-0.222,0.654-0.222S71.471,18.555,71.635,18.711z M69.728,22.533
			c0.236-0.272,0.354-0.652,0.354-1.14c0-0.488-0.118-0.87-0.354-1.146c-0.236-0.276-0.566-0.414-0.99-0.414
			c-0.424,0-0.756,0.138-0.996,0.414c-0.24,0.276-0.36,0.658-0.36,1.146c0,0.488,0.12,0.868,0.36,1.14
			c0.24,0.272,0.572,0.408,0.996,0.408C69.162,22.941,69.491,22.805,69.728,22.533z"/>
		<path fill="#CCCCCC" d="M74.461,24.207c-0.472-0.252-0.836-0.607-1.092-1.068c-0.256-0.46-0.384-1.002-0.384-1.626
			s0.127-1.166,0.384-1.626c0.256-0.46,0.62-0.814,1.092-1.062c0.472-0.248,1.02-0.372,1.644-0.372s1.172,0.124,1.644,0.372
			c0.472,0.248,0.836,0.602,1.092,1.062s0.384,1.002,0.384,1.626s-0.128,1.166-0.384,1.626s-0.62,0.816-1.092,1.068
			c-0.472,0.252-1.02,0.377-1.644,0.377S74.934,24.459,74.461,24.207z M77.425,21.513c0-0.568-0.114-0.992-0.342-1.272
			c-0.228-0.28-0.554-0.42-0.978-0.42c-0.88,0-1.32,0.564-1.32,1.692s0.44,1.692,1.32,1.692S77.425,22.641,77.425,21.513z"/>
	</g>
	<rect x="99.984" y="18.453" fill="#CCCCCC" width="85" height="6.776"/>
	<rect x="211.75" y="18.703" fill="#CCCCCC" width="18.18" height="6.131"/>
	<rect x="223.797" y="35.539" fill="#CCCCCC" width="6.133" height="6.131"/>
	<rect x="214.422" y="35.539" fill="#CCCCCC" width="6.133" height="6.131"/>
	<rect x="206.297" y="35.539" fill="#CCCCCC" width="6.133" height="6.131"/>
	<line fill="none" stroke="#8C8C8C" stroke-miterlimit="10" x1="51.386" y1="33.104" x2="233.75" y2="33.104"/>
	<g>
		<rect x="52.261" y="38.604" fill="#CCCCCC" width="14.25" height="3"/>
		<rect x="69.511" y="38.604" fill="#CCCCCC" width="14.25" height="3"/>
		<rect x="86.136" y="38.604" fill="#CCCCCC" width="14.25" height="3"/>
		<rect x="103.386" y="38.604" fill="#CCCCCC" width="14.25" height="3"/>
		<rect x="120.532" y="38.604" fill="#CCCCCC" width="14.25" height="3"/>
		<rect x="137.782" y="38.604" fill="#CCCCCC" width="14.25" height="3"/>
	</g>
	<g>
		<path d="M28.001,17.089c1.469,1.781,2.203,4.327,2.203,7.634c0,2.212-0.342,4.146-1.028,5.8c-0.686,1.654-1.669,2.922-2.951,3.803
			c-1.283,0.881-2.775,1.321-4.479,1.321c-1.116,0-2.242-0.186-3.377-0.558s-2.104-0.891-2.907-1.556
			c-0.274-0.216-0.475-0.445-0.602-0.691c-0.127-0.244-0.191-0.543-0.191-0.896c0-0.509,0.142-0.943,0.425-1.307
			c0.284-0.362,0.631-0.543,1.042-0.543c0.254,0,0.475,0.034,0.661,0.103c0.187,0.069,0.436,0.191,0.749,0.368
			c0.783,0.469,1.483,0.836,2.1,1.101s1.248,0.396,1.894,0.396c1.214,0,2.178-0.558,2.893-1.673c0.714-1.116,1.12-2.682,1.219-4.698
			c-0.451,0.744-1.087,1.336-1.909,1.776c-0.822,0.44-1.743,0.661-2.761,0.661c-1.214,0-2.295-0.284-3.245-0.853
			c-0.95-0.567-1.693-1.36-2.232-2.378s-0.807-2.173-0.807-3.465c0-1.351,0.303-2.559,0.911-3.626
			c0.606-1.066,1.448-1.898,2.525-2.496s2.291-0.896,3.641-0.896C24.458,14.417,26.533,15.309,28.001,17.089z M24.272,23.667
			c0.567-0.606,0.852-1.399,0.852-2.379c0-0.979-0.284-1.776-0.852-2.393c-0.568-0.616-1.312-0.925-2.231-0.925
			c-0.921,0-1.659,0.304-2.217,0.91c-0.558,0.607-0.837,1.41-0.837,2.408c0,0.979,0.279,1.772,0.837,2.379
			c0.558,0.607,1.296,0.91,2.217,0.91C22.96,24.577,23.704,24.274,24.272,23.667z"/>
	</g>
</g>
</svg>
