<?xml version="1.0" encoding="utf-8"?>
<!-- Generator: Adobe Illustrator 16.0.0, SVG Export Plug-In . SVG Version: 6.00 Build 0)  -->
<!DOCTYPE svg PUBLIC "-//W3C//DTD SVG 1.1//EN" "http://www.w3.org/Graphics/SVG/1.1/DTD/svg11.dtd">
<svg version="1.1" xmlns="http://www.w3.org/2000/svg" xmlns:xlink="http://www.w3.org/1999/xlink" x="0px" y="0px" width="234px"
	 height="50px" viewBox="0 0 234 50" enable-background="new 0 0 234 50" xml:space="preserve">
<g id="Layer_1">
	<rect fill="#FFFFFF" width="234" height="50"/>
	<circle display="none" fill="#9B9B9B" cx="181" cy="30" r="6.5"/>
</g>
<g id="Layer_2">
	<path fill="#FFFFFF" stroke="#CCCCCC" stroke-miterlimit="10" d="M191.948,11.007c0,2.879-1.938,5.213-4.331,5.213H90.704
		c-2.392,0-4.33-2.334-4.33-5.213l0,0c0-2.879,1.938-5.212,4.33-5.212h96.913C190.01,5.794,191.948,8.128,191.948,11.007
		L191.948,11.007z"/>
	<rect x="0.125" fill="#F4B008" width="50" height="50"/>
	<g>
		<path fill="#CCCCCC" d="M52.068,13.258c-0.152-0.152-0.228-0.368-0.228-0.648V5.89c0-0.28,0.084-0.504,0.252-0.672
			s0.396-0.252,0.684-0.252s0.516,0.084,0.684,0.252s0.252,0.392,0.252,0.672v6.072h3.072c0.583,0,0.876,0.256,0.876,0.768
			c0,0.504-0.292,0.756-0.876,0.756h-4.068C52.436,13.486,52.22,13.41,52.068,13.258z"/>
		<path fill="#CCCCCC" d="M59.58,13.204c-0.472-0.252-0.836-0.607-1.092-1.067c-0.256-0.46-0.384-1.002-0.384-1.626
			s0.127-1.166,0.384-1.626c0.256-0.46,0.62-0.814,1.092-1.063c0.472-0.248,1.02-0.372,1.644-0.372s1.172,0.124,1.644,0.372
			s0.836,0.603,1.092,1.063c0.256,0.46,0.384,1.002,0.384,1.626s-0.128,1.166-0.384,1.626c-0.256,0.46-0.62,0.815-1.092,1.067
			c-0.472,0.253-1.02,0.379-1.644,0.379S60.052,13.457,59.58,13.204z M62.544,10.51c0-0.568-0.114-0.992-0.342-1.272
			c-0.228-0.279-0.554-0.42-0.978-0.42c-0.88,0-1.32,0.564-1.32,1.692s0.44,1.691,1.32,1.691S62.544,11.638,62.544,10.51z"/>
		<path fill="#CCCCCC" d="M71.214,7.708c0.164,0.155,0.246,0.361,0.246,0.617v4.524c0,0.952-0.276,1.672-0.828,2.16
			c-0.552,0.488-1.36,0.732-2.424,0.732c-0.896,0-1.632-0.16-2.208-0.48c-0.144-0.08-0.256-0.178-0.336-0.293
			c-0.08-0.117-0.12-0.246-0.12-0.391c0-0.199,0.048-0.363,0.144-0.491s0.224-0.192,0.384-0.192c0.088,0,0.192,0.018,0.312,0.054
			c0.12,0.036,0.244,0.078,0.372,0.126c0.256,0.096,0.492,0.172,0.708,0.229c0.216,0.056,0.448,0.084,0.696,0.084
			c0.512,0,0.892-0.116,1.14-0.349c0.248-0.231,0.372-0.583,0.372-1.056v-0.647c-0.168,0.304-0.42,0.544-0.756,0.72
			s-0.712,0.264-1.128,0.264c-0.512,0-0.966-0.12-1.362-0.359c-0.396-0.24-0.706-0.582-0.93-1.026
			c-0.224-0.444-0.336-0.958-0.336-1.542s0.112-1.098,0.336-1.542c0.224-0.444,0.534-0.788,0.93-1.032s0.85-0.366,1.362-0.366
			c0.408,0,0.778,0.087,1.11,0.259s0.586,0.409,0.762,0.714v-0.12c0-0.256,0.082-0.458,0.246-0.606
			c0.164-0.147,0.382-0.222,0.654-0.222S71.05,7.552,71.214,7.708z M69.306,11.53c0.236-0.271,0.354-0.651,0.354-1.14
			s-0.118-0.87-0.354-1.146c-0.236-0.275-0.566-0.413-0.99-0.413c-0.424,0-0.756,0.138-0.996,0.413
			c-0.24,0.276-0.36,0.658-0.36,1.146s0.12,0.868,0.36,1.14c0.24,0.272,0.572,0.408,0.996,0.408
			C68.74,11.938,69.07,11.802,69.306,11.53z"/>
		<path fill="#CCCCCC" d="M74.04,13.204c-0.472-0.252-0.836-0.607-1.092-1.067c-0.256-0.46-0.384-1.002-0.384-1.626
			s0.127-1.166,0.384-1.626c0.256-0.46,0.62-0.814,1.092-1.063c0.472-0.248,1.02-0.372,1.644-0.372s1.172,0.124,1.644,0.372
			s0.836,0.603,1.092,1.063c0.256,0.46,0.384,1.002,0.384,1.626s-0.128,1.166-0.384,1.626c-0.256,0.46-0.62,0.815-1.092,1.067
			c-0.472,0.253-1.02,0.379-1.644,0.379S74.512,13.457,74.04,13.204z M77.004,10.51c0-0.568-0.114-0.992-0.342-1.272
			c-0.228-0.279-0.554-0.42-0.978-0.42c-0.88,0-1.32,0.564-1.32,1.692s0.44,1.691,1.32,1.691S77.004,11.638,77.004,10.51z"/>
	</g>
	<g>
		<rect x="92.177" y="30.224" fill="#CCCCCC" width="14.25" height="3"/>
		<rect x="109.427" y="30.224" fill="#CCCCCC" width="14.25" height="3"/>
		<rect x="126.052" y="30.224" fill="#CCCCCC" width="14.25" height="3"/>
		<rect x="143.302" y="30.224" fill="#CCCCCC" width="14.25" height="3"/>
		<rect x="160.448" y="30.224" fill="#CCCCCC" width="14.25" height="3"/>
		<rect x="177.698" y="30.224" fill="#CCCCCC" width="14.25" height="3"/>
	</g>
	<circle fill="#CCCCCC" cx="226.943" cy="9.226" r="3.432"/>
	<circle fill="#CCCCCC" cx="217.693" cy="9.226" r="3.432"/>
	<circle fill="#CCCCCC" cx="207.568" cy="9.226" r="3.432"/>
	<rect x="51.84" y="22.667" fill="#CCCCCC" width="180.66" height="1.5"/>
	<rect x="51.84" y="37.834" fill="#CCCCCC" width="180.66" height="1.5"/>
	<g>
		<path d="M28.221,21.785c1.025,0.573,1.819,1.372,2.382,2.397c0.563,1.025,0.844,2.211,0.844,3.558c0,1.407-0.331,2.653-0.995,3.74
			c-0.664,1.083-1.593,1.929-2.789,2.531c-1.196,0.603-2.578,0.904-4.146,0.904c-1.246,0-2.462-0.19-3.648-0.572
			c-1.187-0.382-2.211-0.914-3.076-1.599c-0.301-0.222-0.512-0.457-0.633-0.709c-0.121-0.25-0.181-0.556-0.181-0.919
			c0-0.522,0.146-0.97,0.437-1.342c0.292-0.372,0.648-0.559,1.07-0.559c0.242,0,0.462,0.035,0.664,0.106
			c0.201,0.07,0.462,0.195,0.784,0.377c0.804,0.482,1.538,0.859,2.201,1.13c0.664,0.271,1.387,0.407,2.171,0.407
			c1.226,0,2.156-0.28,2.789-0.844c0.634-0.562,0.95-1.396,0.95-2.502c0-1.046-0.327-1.87-0.98-2.473
			c-0.654-0.604-1.533-0.905-2.638-0.905c-0.684,0-1.307,0.086-1.87,0.257c-0.563,0.17-1.176,0.458-1.839,0.858
			c-0.422,0.242-0.844,0.362-1.266,0.362c-0.482,0-0.89-0.146-1.221-0.437c-0.332-0.292-0.498-0.679-0.498-1.162v-8.774
			c0-0.704,0.191-1.246,0.573-1.628c0.382-0.381,0.924-0.573,1.628-0.573h9.709c1.487,0,2.231,0.593,2.231,1.779
			c0,1.206-0.744,1.809-2.231,1.809h-7.327v4.734c0.965-0.543,2.1-0.814,3.407-0.814C26.03,20.926,27.196,21.212,28.221,21.785z"/>
	</g>
</g>
</svg>
