<?xml version="1.0" encoding="utf-8"?>
<!-- Generator: Adobe Illustrator 16.0.0, SVG Export Plug-In . SVG Version: 6.00 Build 0)  -->
<!DOCTYPE svg PUBLIC "-//W3C//DTD SVG 1.1//EN" "http://www.w3.org/Graphics/SVG/1.1/DTD/svg11.dtd">
<svg version="1.1" xmlns="http://www.w3.org/2000/svg" xmlns:xlink="http://www.w3.org/1999/xlink" x="0px" y="0px" width="234px"
	 height="50px" viewBox="0 0 234 50" enable-background="new 0 0 234 50" xml:space="preserve">
<g id="Layer_1">
	<rect fill="#FFFFFF" width="234" height="50"/>
	<circle display="none" fill="#9B9B9B" cx="181" cy="30" r="6.5"/>
</g>
<g id="Layer_2">
	<rect x="0.125" fill="#F4B008" width="50" height="50"/>
	<rect x="50.547" y="0.396" fill="#CCCCCC" width="183.031" height="8.271"/>
	<g>
		<path fill="#CCCCCC" d="M52.068,23.758c-0.152-0.152-0.228-0.368-0.228-0.648v-6.72c0-0.28,0.084-0.504,0.252-0.672
			s0.396-0.252,0.684-0.252s0.516,0.084,0.684,0.252s0.252,0.392,0.252,0.672v6.072h3.072c0.583,0,0.876,0.256,0.876,0.768
			c0,0.504-0.292,0.756-0.876,0.756h-4.068C52.436,23.986,52.22,23.91,52.068,23.758z"/>
		<path fill="#CCCCCC" d="M59.58,23.704c-0.472-0.252-0.836-0.607-1.092-1.067c-0.256-0.46-0.384-1.002-0.384-1.626
			s0.127-1.166,0.384-1.626c0.256-0.46,0.62-0.814,1.092-1.063c0.472-0.248,1.02-0.372,1.644-0.372s1.172,0.124,1.644,0.372
			s0.836,0.603,1.092,1.063c0.256,0.46,0.384,1.002,0.384,1.626s-0.128,1.166-0.384,1.626c-0.256,0.46-0.62,0.815-1.092,1.067
			c-0.472,0.253-1.02,0.379-1.644,0.379S60.052,23.957,59.58,23.704z M62.544,21.01c0-0.568-0.114-0.992-0.342-1.272
			c-0.228-0.279-0.554-0.42-0.978-0.42c-0.88,0-1.32,0.564-1.32,1.692s0.44,1.691,1.32,1.691S62.544,22.138,62.544,21.01z"/>
		<path fill="#CCCCCC" d="M71.214,18.208c0.164,0.155,0.246,0.361,0.246,0.617v4.524c0,0.952-0.276,1.672-0.828,2.16
			c-0.552,0.488-1.36,0.732-2.424,0.732c-0.896,0-1.632-0.16-2.208-0.48c-0.144-0.08-0.256-0.178-0.336-0.293
			c-0.08-0.117-0.12-0.246-0.12-0.391c0-0.199,0.048-0.363,0.144-0.491s0.224-0.192,0.384-0.192c0.088,0,0.192,0.018,0.312,0.054
			c0.12,0.036,0.244,0.078,0.372,0.126c0.256,0.096,0.492,0.172,0.708,0.229c0.216,0.056,0.448,0.084,0.696,0.084
			c0.512,0,0.892-0.116,1.14-0.349c0.248-0.231,0.372-0.583,0.372-1.056v-0.647c-0.168,0.304-0.42,0.544-0.756,0.72
			s-0.712,0.264-1.128,0.264c-0.512,0-0.966-0.12-1.362-0.359c-0.396-0.24-0.706-0.582-0.93-1.026
			c-0.224-0.444-0.336-0.958-0.336-1.542s0.112-1.098,0.336-1.542c0.224-0.444,0.534-0.788,0.93-1.032s0.85-0.366,1.362-0.366
			c0.408,0,0.778,0.087,1.11,0.259s0.586,0.409,0.762,0.714v-0.12c0-0.256,0.082-0.458,0.246-0.606
			c0.164-0.147,0.382-0.222,0.654-0.222S71.05,18.052,71.214,18.208z M69.306,22.03c0.236-0.271,0.354-0.651,0.354-1.14
			s-0.118-0.87-0.354-1.146c-0.236-0.275-0.566-0.413-0.99-0.413c-0.424,0-0.756,0.138-0.996,0.413
			c-0.24,0.276-0.36,0.658-0.36,1.146s0.12,0.868,0.36,1.14c0.24,0.272,0.572,0.408,0.996,0.408
			C68.74,22.438,69.07,22.302,69.306,22.03z"/>
		<path fill="#CCCCCC" d="M74.04,23.704c-0.472-0.252-0.836-0.607-1.092-1.067c-0.256-0.46-0.384-1.002-0.384-1.626
			s0.127-1.166,0.384-1.626c0.256-0.46,0.62-0.814,1.092-1.063c0.472-0.248,1.02-0.372,1.644-0.372s1.172,0.124,1.644,0.372
			s0.836,0.603,1.092,1.063c0.256,0.46,0.384,1.002,0.384,1.626s-0.128,1.166-0.384,1.626c-0.256,0.46-0.62,0.815-1.092,1.067
			c-0.472,0.253-1.02,0.379-1.644,0.379S74.512,23.957,74.04,23.704z M77.004,21.01c0-0.568-0.114-0.992-0.342-1.272
			c-0.228-0.279-0.554-0.42-0.978-0.42c-0.88,0-1.32,0.564-1.32,1.692s0.44,1.691,1.32,1.691S77.004,22.138,77.004,21.01z"/>
	</g>
	<g>
		<rect x="92.177" y="19.516" fill="#CCCCCC" width="14.25" height="3"/>
		<rect x="109.427" y="19.516" fill="#CCCCCC" width="14.25" height="3"/>
		<rect x="126.052" y="19.516" fill="#CCCCCC" width="14.25" height="3"/>
		<rect x="143.302" y="19.516" fill="#CCCCCC" width="14.25" height="3"/>
		<rect x="160.448" y="19.516" fill="#CCCCCC" width="14.25" height="3"/>
		<rect x="177.698" y="19.516" fill="#CCCCCC" width="14.25" height="3"/>
	</g>
	<rect x="50.547" y="33.125" fill="#CCCCCC" width="183.031" height="0.875"/>
	<circle fill="#CCCCCC" cx="226.943" cy="21.016" r="3.432"/>
	<circle fill="#CCCCCC" cx="217.693" cy="21.016" r="3.432"/>
	<circle fill="#CCCCCC" cx="207.568" cy="21.016" r="3.432"/>
	<g>
		<path d="M30.26,26.197c0.639,0.849,0.958,1.883,0.958,3.104c0,1.163-0.3,2.173-0.9,3.031c-0.601,0.857-1.463,1.521-2.588,1.987
			s-2.431,0.7-3.917,0.7c-1.24,0-2.426-0.181-3.561-0.543s-2.112-0.867-2.931-1.516c-0.286-0.21-0.491-0.438-0.615-0.687
			c-0.125-0.247-0.186-0.533-0.186-0.857c0-0.496,0.143-0.92,0.429-1.273c0.286-0.353,0.629-0.528,1.029-0.528
			c0.229,0,0.438,0.033,0.629,0.1c0.19,0.067,0.429,0.187,0.715,0.357c0.838,0.477,1.563,0.84,2.173,1.087
			c0.61,0.248,1.325,0.372,2.145,0.372c1.163,0,2.011-0.215,2.545-0.644c0.533-0.429,0.801-1.102,0.801-2.017
			c0-0.896-0.277-1.544-0.83-1.944c-0.553-0.4-1.439-0.601-2.66-0.601H21.81c-0.496,0-0.887-0.172-1.172-0.515
			c-0.286-0.344-0.429-0.753-0.429-1.23c0-0.458,0.143-0.858,0.429-1.201c0.286-0.343,0.676-0.515,1.172-0.515h1.201
			c1.163,0,2.025-0.2,2.588-0.601c0.562-0.4,0.844-1.02,0.844-1.859c0-0.801-0.239-1.425-0.715-1.873
			c-0.477-0.448-1.144-0.672-2.002-0.672c-0.706,0-1.363,0.125-1.973,0.372c-0.61,0.248-1.315,0.61-2.116,1.086
			c-0.286,0.172-0.524,0.291-0.715,0.357c-0.191,0.067-0.4,0.1-0.629,0.1c-0.4,0-0.743-0.176-1.029-0.529
			c-0.286-0.353-0.429-0.777-0.429-1.272c0-0.343,0.062-0.634,0.186-0.873c0.124-0.238,0.329-0.462,0.615-0.672
			c0.801-0.648,1.759-1.153,2.874-1.516c1.115-0.362,2.254-0.543,3.417-0.543c1.354,0,2.545,0.225,3.575,0.672
			c1.029,0.448,1.82,1.082,2.374,1.901c0.553,0.82,0.829,1.773,0.829,2.86s-0.281,2.035-0.843,2.845
			c-0.563,0.811-1.34,1.397-2.331,1.759C28.711,24.753,29.621,25.349,30.26,26.197z"/>
	</g>
</g>
</svg>
