<?xml version="1.0" encoding="utf-8"?>
<!-- Generator: Adobe Illustrator 16.0.0, SVG Export Plug-In . SVG Version: 6.00 Build 0)  -->
<!DOCTYPE svg PUBLIC "-//W3C//DTD SVG 1.1//EN" "http://www.w3.org/Graphics/SVG/1.1/DTD/svg11.dtd">
<svg version="1.1" xmlns="http://www.w3.org/2000/svg" xmlns:xlink="http://www.w3.org/1999/xlink" x="0px" y="0px" width="234px"
	 height="50px" viewBox="0 0 234 50" enable-background="new 0 0 234 50" xml:space="preserve">
<g id="Layer_1">
	<rect fill="#FFFFFF" width="234" height="50"/>
	<circle display="none" fill="#9B9B9B" cx="181" cy="30" r="6.5"/>
</g>
<g id="Layer_2">
	<rect x="0.125" fill="#F4B008" width="50" height="50"/>
	<g id="Layer_1_1_">
		<circle display="none" fill="#9B9B9B" cx="182.334" cy="30" r="6.5"/>
	</g>
	<rect x="50.968" fill="#CCCCCC" width="183.032" height="8.271"/>
	<g>
		<path fill="#CCCCCC" d="M127.219,24.261c-0.152-0.152-0.229-0.368-0.229-0.648v-6.72c0-0.28,0.084-0.504,0.252-0.672
			s0.396-0.252,0.685-0.252s0.517,0.084,0.685,0.252s0.252,0.392,0.252,0.672v6.072h3.072c0.582,0,0.875,0.256,0.875,0.768
			c0,0.504-0.291,0.756-0.875,0.756h-4.068C127.587,24.489,127.371,24.413,127.219,24.261z"/>
		<path fill="#CCCCCC" d="M134.73,24.207c-0.472-0.252-0.836-0.607-1.092-1.068c-0.256-0.46-0.384-1.002-0.384-1.626
			s0.127-1.166,0.384-1.626c0.256-0.46,0.62-0.814,1.092-1.062c0.473-0.248,1.021-0.372,1.645-0.372s1.172,0.124,1.645,0.372
			c0.471,0.248,0.836,0.602,1.092,1.062s0.384,1.002,0.384,1.626s-0.128,1.166-0.384,1.626s-0.621,0.816-1.092,1.068
			c-0.473,0.252-1.021,0.377-1.645,0.377S135.203,24.459,134.73,24.207z M137.695,21.513c0-0.568-0.114-0.992-0.342-1.272
			c-0.229-0.28-0.555-0.42-0.979-0.42c-0.88,0-1.32,0.564-1.32,1.692s0.44,1.692,1.32,1.692S137.695,22.641,137.695,21.513z"/>
		<path fill="#CCCCCC" d="M146.365,18.711c0.164,0.156,0.246,0.362,0.246,0.618v4.524c0,0.952-0.276,1.672-0.828,2.161
			c-0.553,0.486-1.36,0.73-2.424,0.73c-0.896,0-1.633-0.16-2.209-0.479c-0.144-0.08-0.256-0.18-0.336-0.293
			c-0.08-0.117-0.119-0.246-0.119-0.393c0-0.199,0.047-0.362,0.144-0.492c0.097-0.127,0.224-0.191,0.384-0.191
			c0.088,0,0.192,0.018,0.313,0.055c0.119,0.035,0.244,0.077,0.371,0.125c0.257,0.096,0.492,0.172,0.709,0.229
			c0.216,0.056,0.447,0.084,0.695,0.084c0.512,0,0.893-0.116,1.141-0.349s0.371-0.584,0.371-1.057v-0.648
			c-0.168,0.304-0.42,0.544-0.756,0.72c-0.336,0.176-0.711,0.264-1.127,0.264c-0.513,0-0.967-0.12-1.363-0.36
			c-0.396-0.24-0.705-0.582-0.93-1.026c-0.224-0.444-0.336-0.958-0.336-1.542c0-0.583,0.112-1.098,0.336-1.542
			c0.225-0.444,0.534-0.788,0.93-1.032c0.396-0.244,0.851-0.366,1.363-0.366c0.407,0,0.777,0.086,1.109,0.258
			s0.586,0.41,0.762,0.714v-0.12c0-0.256,0.082-0.458,0.246-0.606c0.164-0.147,0.383-0.222,0.654-0.222
			S146.201,18.555,146.365,18.711z M144.457,22.533c0.236-0.272,0.354-0.652,0.354-1.14c0-0.488-0.117-0.87-0.354-1.146
			s-0.566-0.414-0.99-0.414s-0.756,0.138-0.996,0.414s-0.359,0.658-0.359,1.146c0,0.488,0.119,0.868,0.359,1.14
			s0.572,0.408,0.996,0.408S144.221,22.805,144.457,22.533z"/>
		<path fill="#CCCCCC" d="M149.191,24.207c-0.473-0.252-0.836-0.607-1.092-1.068c-0.257-0.46-0.385-1.002-0.385-1.626
			s0.127-1.166,0.385-1.626c0.256-0.46,0.619-0.814,1.092-1.062c0.472-0.248,1.02-0.372,1.644-0.372s1.172,0.124,1.644,0.372
			c0.473,0.248,0.836,0.602,1.092,1.062s0.385,1.002,0.385,1.626s-0.129,1.166-0.385,1.626s-0.619,0.816-1.092,1.068
			c-0.472,0.252-1.02,0.377-1.644,0.377S149.663,24.459,149.191,24.207z M152.154,21.513c0-0.568-0.113-0.992-0.342-1.272
			c-0.228-0.28-0.554-0.42-0.978-0.42c-0.88,0-1.32,0.564-1.32,1.692s0.44,1.692,1.32,1.692S152.154,22.641,152.154,21.513z"/>
	</g>
	<line fill="none" stroke="#8C8C8C" stroke-miterlimit="10" x1="51.386" y1="33.104" x2="233.75" y2="33.104"/>
	<g>
		<rect x="92.348" y="38.604" fill="#CCCCCC" width="14.25" height="3"/>
		<rect x="109.598" y="38.604" fill="#CCCCCC" width="14.25" height="3"/>
		<rect x="126.223" y="38.604" fill="#CCCCCC" width="14.25" height="3"/>
		<rect x="143.473" y="38.604" fill="#CCCCCC" width="14.25" height="3"/>
		<rect x="160.619" y="38.604" fill="#CCCCCC" width="14.25" height="3"/>
		<rect x="177.869" y="38.604" fill="#CCCCCC" width="14.25" height="3"/>
	</g>
	<g>
		<path d="M29.937,26.43c0.599,0.809,0.899,1.795,0.899,2.956c0,1.707-0.653,3.042-1.961,4.004c-1.308,0.963-3.114,1.444-5.42,1.444
			c-2.307,0-4.113-0.481-5.421-1.444c-1.308-0.962-1.961-2.297-1.961-4.004c0-1.199,0.3-2.197,0.899-2.997
			c0.599-0.798,1.461-1.352,2.588-1.661c-0.944-0.363-1.68-0.926-2.207-1.689c-0.527-0.762-0.79-1.652-0.79-2.669
			c0-1.598,0.617-2.865,1.852-3.8c1.235-0.935,2.915-1.402,5.04-1.402c2.143,0,3.827,0.463,5.053,1.389
			c1.226,0.926,1.839,2.197,1.839,3.813c0,1.035-0.264,1.943-0.79,2.724c-0.527,0.782-1.253,1.326-2.179,1.635
			C28.484,25.054,29.338,25.623,29.937,26.43z M26.886,29.059c0-1.689-1.144-2.533-3.432-2.533c-2.289,0-3.433,0.844-3.433,2.533
			c0,1.688,1.144,2.534,3.433,2.534C25.742,31.593,26.886,30.747,26.886,29.059z M20.54,20.832c0,1.635,0.971,2.452,2.915,2.452
			c1.943,0,2.915-0.817,2.915-2.452c0-1.616-0.972-2.424-2.915-2.424C21.51,18.408,20.54,19.216,20.54,20.832z"/>
	</g>
</g>
</svg>
