<?xml version="1.0" encoding="utf-8"?>
<!-- Generator: Adobe Illustrator 16.0.0, SVG Export Plug-In . SVG Version: 6.00 Build 0)  -->
<!DOCTYPE svg PUBLIC "-//W3C//DTD SVG 1.1//EN" "http://www.w3.org/Graphics/SVG/1.1/DTD/svg11.dtd">
<svg version="1.1" xmlns="http://www.w3.org/2000/svg" xmlns:xlink="http://www.w3.org/1999/xlink" x="0px" y="0px" width="234px"
	 height="50px" viewBox="0 0 234 50" enable-background="new 0 0 234 50" xml:space="preserve">
<g id="Layer_1">
	<rect fill="#FFFFFF" width="234" height="50"/>
	<circle display="none" fill="#9B9B9B" cx="181" cy="30" r="6.5"/>
</g>
<g id="Layer_2">
	<rect x="0.125" fill="#F4B008" width="50" height="50"/>
	<g>
		<path d="M31.519,33.927c0,1.286-0.746,1.93-2.236,1.93H18.809c-1.511,0-2.266-0.644-2.266-1.93c0-1.266,0.755-1.898,2.266-1.898
			h2.848V19.503l-2.695,1.623c-0.306,0.184-0.613,0.275-0.919,0.275c-0.51,0-0.944-0.214-1.301-0.644
			c-0.357-0.429-0.536-0.908-0.536-1.438c0-0.715,0.316-1.256,0.949-1.624l4.839-2.909c0.714-0.429,1.429-0.643,2.144-0.643
			c0.674,0,1.225,0.209,1.654,0.627c0.429,0.419,0.643,0.985,0.643,1.7v15.558h2.848C30.773,32.028,31.519,32.661,31.519,33.927z"/>
	</g>
	<rect x="50.547" y="0.396" fill="#CCCCCC" width="183.031" height="8.271"/>
	<g>
		<path fill="#CCCCCC" d="M52.068,24.657c-0.152-0.152-0.228-0.368-0.228-0.648v-6.72c0-0.28,0.084-0.504,0.252-0.672
			s0.396-0.252,0.684-0.252s0.516,0.084,0.684,0.252s0.252,0.392,0.252,0.672v6.072h3.072c0.583,0,0.876,0.256,0.876,0.768
			c0,0.504-0.292,0.756-0.876,0.756h-4.068C52.436,24.885,52.22,24.809,52.068,24.657z"/>
		<path fill="#CCCCCC" d="M59.58,24.603c-0.472-0.252-0.836-0.607-1.092-1.068c-0.256-0.46-0.384-1.002-0.384-1.626
			s0.127-1.166,0.384-1.626c0.256-0.46,0.62-0.814,1.092-1.062c0.472-0.248,1.02-0.372,1.644-0.372s1.172,0.124,1.644,0.372
			s0.836,0.602,1.092,1.062c0.256,0.46,0.384,1.002,0.384,1.626s-0.128,1.166-0.384,1.626c-0.256,0.46-0.62,0.816-1.092,1.068
			c-0.472,0.252-1.02,0.378-1.644,0.378S60.052,24.855,59.58,24.603z M62.544,21.909c0-0.568-0.114-0.992-0.342-1.272
			c-0.228-0.28-0.554-0.42-0.978-0.42c-0.88,0-1.32,0.564-1.32,1.692s0.44,1.692,1.32,1.692S62.544,23.037,62.544,21.909z"/>
		<path fill="#CCCCCC" d="M71.214,19.107c0.164,0.156,0.246,0.362,0.246,0.618v4.524c0,0.952-0.276,1.672-0.828,2.16
			c-0.552,0.488-1.36,0.732-2.424,0.732c-0.896,0-1.632-0.16-2.208-0.48c-0.144-0.08-0.256-0.178-0.336-0.293
			c-0.08-0.117-0.12-0.246-0.12-0.391c0-0.199,0.048-0.363,0.144-0.492c0.096-0.128,0.224-0.192,0.384-0.192
			c0.088,0,0.192,0.018,0.312,0.054c0.12,0.036,0.244,0.078,0.372,0.126c0.256,0.096,0.492,0.172,0.708,0.229
			c0.216,0.056,0.448,0.084,0.696,0.084c0.512,0,0.892-0.116,1.14-0.349c0.248-0.232,0.372-0.583,0.372-1.056v-0.648
			c-0.168,0.304-0.42,0.544-0.756,0.72c-0.336,0.176-0.712,0.264-1.128,0.264c-0.512,0-0.966-0.12-1.362-0.36
			c-0.396-0.24-0.706-0.582-0.93-1.026c-0.224-0.444-0.336-0.958-0.336-1.542c0-0.583,0.112-1.098,0.336-1.542
			c0.224-0.444,0.534-0.788,0.93-1.032s0.85-0.366,1.362-0.366c0.408,0,0.778,0.086,1.11,0.258s0.586,0.41,0.762,0.714v-0.12
			c0-0.256,0.082-0.458,0.246-0.606s0.382-0.222,0.654-0.222S71.05,18.951,71.214,19.107z M69.306,22.929
			c0.236-0.272,0.354-0.652,0.354-1.14c0-0.488-0.118-0.87-0.354-1.146c-0.236-0.276-0.566-0.414-0.99-0.414
			c-0.424,0-0.756,0.138-0.996,0.414c-0.24,0.276-0.36,0.658-0.36,1.146c0,0.488,0.12,0.868,0.36,1.14
			c0.24,0.272,0.572,0.408,0.996,0.408C68.74,23.337,69.07,23.201,69.306,22.929z"/>
		<path fill="#CCCCCC" d="M74.04,24.603c-0.472-0.252-0.836-0.607-1.092-1.068c-0.256-0.46-0.384-1.002-0.384-1.626
			s0.127-1.166,0.384-1.626c0.256-0.46,0.62-0.814,1.092-1.062c0.472-0.248,1.02-0.372,1.644-0.372s1.172,0.124,1.644,0.372
			s0.836,0.602,1.092,1.062c0.256,0.46,0.384,1.002,0.384,1.626s-0.128,1.166-0.384,1.626c-0.256,0.46-0.62,0.816-1.092,1.068
			c-0.472,0.252-1.02,0.378-1.644,0.378S74.512,24.855,74.04,24.603z M77.004,21.909c0-0.568-0.114-0.992-0.342-1.272
			c-0.228-0.28-0.554-0.42-0.978-0.42c-0.88,0-1.32,0.564-1.32,1.692s0.44,1.692,1.32,1.692S77.004,23.037,77.004,21.909z"/>
	</g>
	<rect x="99.563" y="18.849" fill="#CCCCCC" width="85" height="6.776"/>
	<rect x="223.625" y="18.849" fill="#CCCCCC" width="6.133" height="6.132"/>
	<rect x="214.25" y="18.849" fill="#CCCCCC" width="6.133" height="6.132"/>
	<rect x="206.125" y="18.849" fill="#CCCCCC" width="6.133" height="6.132"/>
	<line fill="#CCCCCC" stroke="#8C8C8C" stroke-miterlimit="10" x1="51.215" y1="33.25" x2="233.578" y2="33.25"/>
	<g>
		<rect x="92.177" y="38.75" fill="#CCCCCC" width="14.25" height="3"/>
		<rect x="109.427" y="38.75" fill="#CCCCCC" width="14.25" height="3"/>
		<rect x="126.052" y="38.75" fill="#CCCCCC" width="14.25" height="3"/>
		<rect x="143.302" y="38.75" fill="#CCCCCC" width="14.25" height="3"/>
		<rect x="160.448" y="38.75" fill="#CCCCCC" width="14.25" height="3"/>
		<rect x="177.698" y="38.75" fill="#CCCCCC" width="14.25" height="3"/>
	</g>
</g>
</svg>
