<?xml version="1.0" encoding="utf-8"?>
<!-- Generator: Adobe Illustrator 16.0.0, SVG Export Plug-In . SVG Version: 6.00 Build 0)  -->
<!DOCTYPE svg PUBLIC "-//W3C//DTD SVG 1.1//EN" "http://www.w3.org/Graphics/SVG/1.1/DTD/svg11.dtd">
<svg version="1.1" xmlns="http://www.w3.org/2000/svg" xmlns:xlink="http://www.w3.org/1999/xlink" x="0px" y="0px" width="234px"
	 height="50px" viewBox="0 0 234 50" enable-background="new 0 0 234 50" xml:space="preserve">
<g id="Layer_1">
	<rect fill="#FFFFFF" width="234" height="50"/>
	<circle display="none" fill="#9B9B9B" cx="181" cy="30" r="6.5"/>
</g>
<g id="Layer_2">
	<rect x="0.125" fill="#F4B008" width="50" height="50"/>
	<g>
		<path fill="#CCCCCC" d="M53.068,27.904c-0.152-0.152-0.228-0.369-0.228-0.648v-6.72c0-0.28,0.084-0.504,0.252-0.672
			s0.396-0.252,0.684-0.252s0.516,0.084,0.684,0.252s0.252,0.392,0.252,0.672v6.072h3.072c0.583,0,0.876,0.256,0.876,0.768
			c0,0.504-0.292,0.756-0.876,0.756h-4.068C53.436,28.131,53.22,28.055,53.068,27.904z"/>
		<path fill="#CCCCCC" d="M60.58,27.85c-0.472-0.252-0.836-0.607-1.092-1.068c-0.256-0.459-0.384-1.002-0.384-1.625
			c0-0.625,0.127-1.167,0.384-1.626c0.256-0.46,0.62-0.814,1.092-1.063c0.472-0.248,1.02-0.372,1.644-0.372s1.172,0.124,1.644,0.372
			s0.836,0.603,1.092,1.063c0.256,0.46,0.384,1.001,0.384,1.626c0,0.623-0.128,1.166-0.384,1.625
			c-0.256,0.461-0.62,0.816-1.092,1.068s-1.02,0.379-1.644,0.379S61.052,28.102,60.58,27.85z M63.544,25.156
			c0-0.568-0.114-0.993-0.342-1.273c-0.228-0.279-0.554-0.42-0.978-0.42c-0.88,0-1.32,0.564-1.32,1.693
			c0,1.127,0.44,1.691,1.32,1.691S63.544,26.283,63.544,25.156z"/>
		<path fill="#CCCCCC" d="M72.214,22.354c0.164,0.155,0.246,0.361,0.246,0.617v4.525c0,0.951-0.276,1.672-0.828,2.159
			c-0.552,0.488-1.36,0.732-2.424,0.732c-0.896,0-1.632-0.16-2.208-0.48c-0.144-0.08-0.256-0.178-0.336-0.294
			c-0.08-0.117-0.12-0.246-0.12-0.391c0-0.199,0.048-0.363,0.144-0.49c0.096-0.129,0.224-0.193,0.384-0.193
			c0.088,0,0.192,0.018,0.312,0.055c0.12,0.035,0.244,0.078,0.372,0.125c0.256,0.096,0.492,0.172,0.708,0.229
			c0.216,0.057,0.448,0.084,0.696,0.084c0.512,0,0.892-0.115,1.14-0.348s0.372-0.584,0.372-1.057V26.98
			c-0.168,0.303-0.42,0.543-0.756,0.719s-0.712,0.264-1.128,0.264c-0.512,0-0.966-0.119-1.362-0.359s-0.706-0.582-0.93-1.025
			c-0.224-0.445-0.336-0.959-0.336-1.543c0-0.583,0.112-1.097,0.336-1.542c0.224-0.444,0.534-0.788,0.93-1.032
			s0.85-0.366,1.362-0.366c0.408,0,0.778,0.087,1.11,0.259s0.586,0.409,0.762,0.714v-0.12c0-0.256,0.082-0.458,0.246-0.606
			c0.164-0.147,0.382-0.222,0.654-0.222S72.05,22.198,72.214,22.354z M70.306,26.176c0.236-0.271,0.354-0.652,0.354-1.141
			s-0.118-0.87-0.354-1.146c-0.236-0.275-0.566-0.413-0.99-0.413c-0.424,0-0.756,0.138-0.996,0.413
			c-0.24,0.276-0.36,0.658-0.36,1.146s0.12,0.869,0.36,1.141c0.24,0.271,0.572,0.408,0.996,0.408
			C69.74,26.584,70.07,26.447,70.306,26.176z"/>
		<path fill="#CCCCCC" d="M75.04,27.85c-0.472-0.252-0.836-0.607-1.092-1.068c-0.256-0.459-0.384-1.002-0.384-1.625
			c0-0.625,0.127-1.167,0.384-1.626c0.256-0.46,0.62-0.814,1.092-1.063c0.472-0.248,1.02-0.372,1.644-0.372s1.172,0.124,1.644,0.372
			s0.836,0.603,1.092,1.063c0.256,0.46,0.384,1.001,0.384,1.626c0,0.623-0.128,1.166-0.384,1.625
			c-0.256,0.461-0.62,0.816-1.092,1.068s-1.02,0.379-1.644,0.379S75.512,28.102,75.04,27.85z M78.004,25.156
			c0-0.568-0.114-0.993-0.342-1.273c-0.228-0.279-0.554-0.42-0.978-0.42c-0.88,0-1.32,0.564-1.32,1.693
			c0,1.127,0.44,1.691,1.32,1.691S78.004,26.283,78.004,25.156z"/>
	</g>
	<g>
		<rect x="93.177" y="23.662" fill="#CCCCCC" width="14.25" height="3"/>
		<rect x="110.427" y="23.662" fill="#CCCCCC" width="14.25" height="3"/>
		<rect x="127.052" y="23.662" fill="#CCCCCC" width="14.25" height="3"/>
		<rect x="144.302" y="23.662" fill="#CCCCCC" width="14.25" height="3"/>
		<rect x="161.448" y="23.662" fill="#CCCCCC" width="14.25" height="3"/>
		<rect x="178.698" y="23.662" fill="#CCCCCC" width="14.25" height="3"/>
	</g>
	<circle fill="#CCCCCC" cx="227.943" cy="25.162" r="3.432"/>
	<circle fill="#CCCCCC" cx="218.693" cy="25.162" r="3.432"/>
	<circle fill="#CCCCCC" cx="208.568" cy="25.162" r="3.432"/>
	<g>
		<path d="M28.236,22.883c0.895,0.535,1.596,1.282,2.103,2.241c0.507,0.959,0.761,2.047,0.761,3.264
			c0,1.273-0.286,2.412-0.857,3.418c-0.572,1.005-1.365,1.789-2.379,2.352c-1.016,0.563-2.158,0.844-3.432,0.844
			c-2.527,0-4.482-0.839-5.865-2.518c-1.385-1.679-2.076-4.077-2.076-7.194c0-2.084,0.322-3.905,0.969-5.465
			c0.646-1.559,1.572-2.753,2.781-3.583c1.207-0.83,2.614-1.245,4.219-1.245c1.052,0,2.112,0.176,3.182,0.526
			c1.07,0.35,1.983,0.839,2.74,1.466c0.258,0.203,0.447,0.42,0.566,0.65c0.12,0.23,0.18,0.512,0.18,0.844
			c0,0.479-0.133,0.891-0.4,1.231c-0.268,0.342-0.596,0.512-0.982,0.512c-0.24,0-0.447-0.032-0.623-0.097s-0.41-0.18-0.705-0.346
			c-0.738-0.443-1.397-0.789-1.979-1.038s-1.176-0.373-1.785-0.373c-1.144,0-2.052,0.525-2.725,1.577
			c-0.674,1.051-1.057,2.527-1.148,4.427c0.424-0.701,1.023-1.259,1.799-1.674c0.774-0.415,1.641-0.623,2.601-0.623
			C26.322,22.081,27.342,22.348,28.236,22.883z M26.271,30.796c0.525-0.571,0.789-1.328,0.789-2.269c0-0.922-0.264-1.668-0.789-2.24
			s-1.223-0.858-2.089-0.858c-0.867,0-1.567,0.286-2.103,0.858s-0.803,1.318-0.803,2.24c0,0.923,0.268,1.674,0.803,2.255
			s1.235,0.872,2.103,0.872C25.049,31.654,25.746,31.368,26.271,30.796z"/>
	</g>
</g>
</svg>
